<svg width="94" height="24" fill="none" xmlns="http://www.w3.org/2000/svg"><path fill-rule="evenodd" clip-rule="evenodd" d="M57.699 18.133a4.689 4.689 0 005.304-.966 4.692 4.692 0 003.333 1.395H77.45c1.612 0 3.157-.64 4.297-1.781a6.084 6.084 0 00-4.297-10.382h-2.596l6.608-3.716L80.657 0 69.393 6.4l.66 2.731h7.382a3.35 3.35 0 013.352 3.354 3.355 3.355 0 01-3.352 3.354H66.336a1.975 1.975 0 01-1.966-1.977V8.496l-2.734.667v4.695a1.978 1.978 0 01-1.962 1.99 1.974 1.974 0 01-1.988-1.963V8.519l-2.726.648v8.944a3.346 3.346 0 01-3.06 3.335L52.52 24l.63-.183a5.947 5.947 0 004.549-5.684zm2.77-12.83a1.359 1.359 0 11-2.718.002 1.359 1.359 0 012.718-.001zm2.502 1.36a1.359 1.359 0 100-2.718 1.359 1.359 0 000 2.718zm28.732 11.515c1.53-.51 2.296-1.543 2.296-3.1a7.512 7.512 0 00-1.68-4.829c-1.121-1.4-3.034-2.5-5.496-3.21l-.643 2.647c3.277.954 4.984 2.666 5.12 5.138a.657.657 0 01-.446.76 15.35 15.35 0 01-3.575.268H84.6l.665 2.733h2.033c2.07-.006 3.539-.142 4.406-.407zM9.419 6.073a1.368 1.368 0 11-2.736.001 1.368 1.368 0 012.736-.001zm1.975 12.476a4.708 4.708 0 004.692-4.704V8.479l-2.735.666v4.7a1.977 1.977 0 01-1.975 1.967 1.974 1.974 0 01-1.975-1.963V8.483l-2.699.671v4.69a1.977 1.977 0 01-1.975 1.969 1.974 1.974 0 01-1.975-1.964V3.743L0 4.41v9.436a4.715 4.715 0 004.71 4.7 4.688 4.688 0 003.333-1.391 4.69 4.69 0 003.342 1.395h.01zm4.714 3.698a1.368 1.368 0 11-2.735.001 1.368 1.368 0 012.735 0zm-5.201 1.369a1.368 1.368 0 100-2.736 1.368 1.368 0 000 2.736zm36.772-8.383c.37-.37.578-.873.578-1.398v-4.69l2.757-.685v5.366a4.716 4.716 0 01-2.916 4.343 4.706 4.706 0 01-5.127-1.03 4.704 4.704 0 01-6.702 0 4.69 4.69 0 01-3.338 1.396h-9.5a4.708 4.708 0 01-4.7-4.709V4.445l2.735-.667V13.835a1.977 1.977 0 001.966 1.977h9.486a1.974 1.974 0 001.97-1.972V9.788l2.735-.644v4.696a1.977 1.977 0 001.975 1.976 1.974 1.974 0 001.975-1.976V9.788l2.734-.644v4.691a1.977 1.977 0 001.975 1.977c.524 0 1.027-.208 1.397-.58z" fill="#08BA9E"/></svg>