<svg width="153" height="48" fill="none" xmlns="http://www.w3.org/2000/svg"><g clip-path="url(#clip0_9997_71444)" fill="#333132"><path d="M90.538 29.784c1.5-.498 2.249-1.509 2.249-3.031a7.346 7.346 0 00-1.645-4.726c-1.098-1.369-2.97-2.445-5.382-3.14l-.63 2.59c3.209.933 4.88 2.608 5.014 5.026a.643.643 0 01-.437.744 15.05 15.05 0 01-3.5.262h-2.625l.652 2.674h1.99c2.027-.006 3.465-.14 4.314-.399zM62.407 18.519a1.33 1.33 0 100-2.66 1.33 1.33 0 000 2.66zM58.627 18.519a1.33 1.33 0 100-2.66 1.33 1.33 0 000 2.66z"/><path d="M57.244 29.74a4.593 4.593 0 005.193-.944 4.593 4.593 0 003.264 1.365h10.88a5.95 5.95 0 000-11.9H74.04l6.47-3.636L79.723 12l-11.03 6.26.648 2.674h7.228a3.282 3.282 0 010 6.562H65.7a1.934 1.934 0 01-1.925-1.933v-5.25l-2.677.651v4.594a1.934 1.934 0 01-3.868.026v-5.25l-2.669.635v8.75a3.273 3.273 0 01-2.997 3.264l.609 2.498.616-.18a5.822 5.822 0 004.454-5.56zM8.634 19.28a1.339 1.339 0 100-2.677 1.339 1.339 0 000 2.677z"/><path d="M11.906 30.148a4.611 4.611 0 004.594-4.603v-5.25l-2.678.652v4.598a1.933 1.933 0 01-3.867.005V20.3l-2.643.656v4.59a1.933 1.933 0 01-3.867.004v-9.888l-2.695.652v9.231a4.611 4.611 0 006.38 4.245 4.594 4.594 0 001.495-1.007 4.593 4.593 0 003.273 1.365h.008zM15.183 35.104a1.339 1.339 0 100-2.677 1.339 1.339 0 000 2.677zM11.43 35.104a1.339 1.339 0 100-2.677 1.339 1.339 0 000 2.677zM48 25.536a1.934 1.934 0 11-3.868 0v-4.59l-2.677.63v3.965a1.934 1.934 0 11-3.868 0v-4.594l-2.677.63v3.963a1.934 1.934 0 01-1.93 1.93h-9.288a1.934 1.934 0 01-1.925-1.934v-9.84l-2.677.653v9.179a4.611 4.611 0 004.602 4.606h9.302a4.595 4.595 0 003.268-1.365 4.607 4.607 0 006.562 0 4.611 4.611 0 007.875-3.242v-5.25l-2.7.67v4.59z"/></g><path d="M148.945 6.038c-3.985-3.674-10.539-4.014-17.525-.916l-.061.026-.459.21c-.589.274-1.165.562-1.706.872l-.497.27a54.448 54.448 0 00-11.625 8.95 61.53 61.53 0 00-2.13 2.24c-.406.436-.798.872-1.182 1.343.195.892.435 1.773.72 2.64a56.57 56.57 0 012.426-2.81l.031-.03c.558-.602 1.14-1.2 1.745-1.794a51.352 51.352 0 0111.594-8.832c.507-.27 1.043-.537 1.602-.799l.467-.213c6.153-2.728 11.782-2.54 15.103.51 3.665 3.382 4.041 9.884.973 16.97a37.596 37.596 0 01-17.106 17.966 33.351 33.351 0 01-5.236-3.246c1.618 0 4.101-.25 5.629-1.087 2.474-1.357-.314-2.256-.314-2.256.977-.388 6.41-2.391 9.539-7.23.362-.564 1.776-2.837.292-2.911a18.59 18.59 0 002.418-4.896c1.557-4.87 2.225-10.299-1.96-11.054-1.632-.292-3.757.384-5.93 2.042a19.506 19.506 0 00-6.192 7.384c-.437-.537-1.401-2.43-2.531-1.47-2.618 2.08-4.447 5.995-5.237 8.552-1.125-1.867-2.251-2.182-2.452-.152-.148 1.496-.506 3.49-1.357 4.865a34.12 34.12 0 01-1.506-2.278 30.274 30.274 0 01-2.147-4.272 30.651 30.651 0 01-.576-1.427c-.056-.157-.113-.31-.165-.467a25.122 25.122 0 01-.773-2.618 17.076 17.076 0 01-.336-6.786 10.117 10.117 0 012.832-5.65c4.521-4.408 10.949-3.518 14.099-2.846.241.066.489.098.738.096.14 0 .148-.091.122-.153-.065-.144-.689-.366-.873-.436-6.31-2.26-11.965-1.654-15.591 1.684-2.182 2.02-3.443 4.875-3.714 8.23a21.895 21.895 0 001.017 8.082c-.259.35-.498.68-.716.995l-.144.21-.222.331a7.1 7.1 0 00-.21.314l-.17.262-.284.437c-.266.436-.519.842-.763 1.256l-.053.092a33.102 33.102 0 00-1.531 2.937c-2.156 4.721-2.304 8.252-.306 10.246 1.999 1.994 5.743 1.745 10.473-.397 4.386-1.999 9.417-6.057 13.864-10.582a57.947 57.947 0 005.524-6.646c1.021-1.392 1.021-1.624.925-1.68-.096-.057-.349.235-1.348 1.527a57.318 57.318 0 01-16.848 14.117c-5.132 2.832-9.387 3.617-10.94 2.064-1.253-1.253-1.004-4.006.68-7.707l.214-.462v-.04a39.02 39.02 0 012.741-4.677 40.974 40.974 0 003.194 6.183 26.464 26.464 0 002.291 3.129 14.72 14.72 0 002.863-6.681c.026-.231.178-.48.48-.135.367.509.7 1.042.995 1.597.004.009.012.017.02.022a.058.058 0 00.059 0 .057.057 0 00.021-.022 19.073 19.073 0 014.831-9.029c.174-.183.632-.676.811-.537a9.953 9.953 0 011.65 2.156.156.156 0 00.227.042.162.162 0 00.052-.068c.436-1.178 1.841-4.43 5.9-7.698 2.134-1.715 4.032-1.963 5.132-1.915 2.312.091 4.852 3.207.624 12.297-.201.436-.716 1.134-1.17 1.265l-4.159.943s-.584.166.223.122c.436-.022 2.321.026 2.321.026 1.58-.07 1.942.305 1.462 1.191-3.364 6.188-9.783 7.633-11.193 7.881a.087.087 0 00-.048.026.085.085 0 00-.024.05.084.084 0 00.01.053c.009.016.023.03.041.037.654.323 2.295 1.209 1.745 1.702-1.021.925-4.22 1.566-8.867.973 0 0 4.303 4.05 9.19 6.328a1.373 1.373 0 001.143 0 37.705 37.705 0 0011.603-8.68 38.639 38.639 0 007.035-10.656c3.456-7.986 2.88-15.465-1.514-19.51" fill="#08BA9E"/><defs><clipPath id="clip0_9997_71444"><path fill="#fff" transform="translate(.75 12)" d="M0 0h92.25v24H0z"/></clipPath></defs></svg>