<svg width="24" height="24" viewBox="0 0 24 24" fill="none" xmlns="http://www.w3.org/2000/svg">
<path d="M14.3516 4.66127C14.4756 4.62522 14.6095 4.65184 14.7103 4.73264C15.4052 5.28968 15.8552 5.77331 16.063 6.20665C16.2034 6.49958 16.1331 6.69337 15.8104 7.03691L15.7 7.15067L15.5726 7.27612L15.3343 7.50256L14.9145 7.89789C14.7449 8.05957 14.594 8.20785 14.4522 8.35347L14.3201 8.49096L14.4195 8.57003C17.5376 11.0803 18.6002 14.706 17.6121 19.3808L17.5672 19.5877C17.5296 19.7561 17.3875 19.8809 17.2156 19.8963C8.26817 20.699 4.60596 16.8313 6.47476 8.51686C6.52769 8.2814 6.77693 8.14744 7.00251 8.23321C7.63886 8.47518 8.24983 8.85599 8.83555 9.37339L8.89735 9.42904L8.97007 9.30846C10.4511 6.87984 12.1936 5.33963 14.2006 4.70702L14.3516 4.66127ZM13.7453 9.15298C12.7682 10.391 12.3704 11.6168 12.6997 12.9738C12.7513 13.1866 12.6207 13.4009 12.4079 13.4526C12.1951 13.5042 11.9807 13.3736 11.9291 13.1608C11.473 11.2814 12.1664 9.64706 13.6637 8.0321C13.8429 7.83881 14.0279 7.65148 14.2381 7.44804L14.9536 6.77141L15.0732 6.6548L15.1693 6.5567C15.1835 6.54177 15.1967 6.52753 15.2091 6.51393L15.2815 6.42964L15.2494 6.37992C15.1035 6.16275 14.8615 5.90402 14.5241 5.60982L14.376 5.48363L14.2955 5.51049C12.4565 6.13988 10.8359 7.65472 9.4368 10.0756L9.33228 10.2588C9.20266 10.4891 8.88826 10.5305 8.70341 10.3417C8.23421 9.8623 7.75362 9.49016 7.26174 9.22352L7.14687 9.1634L7.10457 9.37864C5.72769 16.515 8.83771 19.7072 16.6454 19.1469L16.8536 19.131L16.8788 19.0098C17.7345 14.718 16.749 11.4663 13.9267 9.19136L13.7967 9.08846L13.7453 9.15298Z" fill="#08B89D"/>
<path d="M9.49114 6.14478C9.68789 6.14478 9.85236 6.28843 9.88264 6.47843L9.8872 6.52306L10.0017 9.01506C10.0118 9.2338 9.84261 9.41928 9.62387 9.42933C9.42076 9.43867 9.24632 9.29346 9.21439 9.09754L9.2096 9.05147L9.11302 6.95576L9.05689 6.96113C8.63363 7.0079 8.24301 7.12483 7.88272 7.31195L7.83198 7.33916L7.8323 8.8503C7.8323 9.05363 7.67925 9.22121 7.48206 9.24411L7.43582 9.24678C7.23249 9.24678 7.06491 9.09372 7.042 8.89653L7.03934 8.8503V7.11153C7.03934 6.97526 7.10932 6.84854 7.22465 6.77596C7.89327 6.35521 8.6517 6.14478 9.49114 6.14478Z" fill="#08B89D"/>
<path d="M10.9699 4.00025L11.0139 4.00428C12.0516 4.15729 12.8121 4.39648 13.3043 4.73834C13.4216 4.81978 13.4849 4.95695 13.4733 5.09661L13.4654 5.14899L13.3381 5.72943C13.2911 5.94331 13.0797 6.07864 12.8658 6.0317C12.6672 5.98811 12.5363 5.80268 12.5562 5.60517L12.5635 5.55944L12.6295 5.25848L12.5623 5.2254C12.2586 5.0823 11.8502 4.96018 11.3392 4.86283L11.264 4.84892L10.5066 8.36556C10.4638 8.56433 10.2789 8.69592 10.0813 8.67678L10.0355 8.66965C9.83677 8.62684 9.70518 8.44192 9.72432 8.24433L9.73145 8.19857L10.5685 4.31303C10.6093 4.12344 10.7802 3.99346 10.9699 4.00025Z" fill="#08B89D"/>
</svg>
