<svg width="24" height="24" viewBox="0 0 24 24" fill="none" xmlns="http://www.w3.org/2000/svg">
<path d="M12.706 19.1921C12.8031 19.1921 12.8978 19.2314 12.9665 19.3C13.0351 19.3687 13.0744 19.4635 13.0744 19.5605C13.0744 19.6575 13.0351 19.7523 12.9664 19.821C12.8978 19.8896 12.803 19.9289 12.706 19.9289C12.6088 19.9289 12.5142 19.8896 12.4455 19.8209C12.3769 19.7523 12.3376 19.6575 12.3376 19.5605C12.3376 19.4634 12.3769 19.3686 12.4455 19.3C12.5143 19.2313 12.6088 19.1921 12.706 19.1921ZM9.85204 14.1735L9.94013 14.1783C10.8121 14.2493 11.5052 14.9219 11.6107 15.781L11.6192 15.8675L11.6236 15.9528L11.6435 16.9836L12.547 18.5485C12.6487 18.7247 12.5883 18.95 12.4121 19.0516C12.2666 19.1356 12.0855 19.1096 11.9668 18.9915L11.936 18.9571L11.9089 18.9168L11.153 17.6076L10.5962 17.9292L11.429 19.3719C11.5151 19.521 11.4851 19.7053 11.3671 19.82L11.3328 19.8495L11.2942 19.8751C11.2376 19.9078 11.1744 19.9245 11.1103 19.9245C11.0153 19.9245 10.924 19.8879 10.8533 19.8195L10.8198 19.7827L10.791 19.7403L9.83408 18.0655L8.93468 17.4793C8.22349 17.0157 7.92736 16.1171 8.21057 15.3248L8.24314 15.2403L8.2792 15.1591L8.29344 15.1291C8.55107 14.5852 9.08788 14.2218 9.68491 14.1774L9.77059 14.1733L9.85204 14.1735ZM11.8143 5C12.4076 5.00781 13.1481 5.10648 13.9404 5.35466C14.2276 5.44461 14.5039 5.55026 14.7686 5.67115L14.9138 5.74043L14.9475 5.70854C15.952 4.7867 17.4911 4.76659 18.5188 5.64654L18.5988 5.71788L18.6729 5.78921C19.7234 6.83971 19.7234 8.54876 18.6729 9.59919C18.5506 9.72147 18.4175 9.83122 18.2748 9.92756L18.2154 9.96523L18.245 10.0871C18.5018 11.2096 18.4953 12.3683 18.2237 13.4262L18.173 13.6119L18.1227 13.777C17.6672 15.1997 16.7446 16.3516 15.4368 17.1347L15.2952 17.2172L15.2114 17.2632L15.953 19.4372C16.0086 19.6001 15.9435 19.7751 15.8055 19.8648L15.7661 19.8871L15.7233 19.9047C15.6847 19.9179 15.6445 19.9246 15.6043 19.9246C15.4819 19.9246 15.3677 19.8635 15.2979 19.7595L15.2739 19.7186L15.2557 19.675L14.4986 17.4556L14.4407 17.4539C13.7174 17.4171 13.0622 17.1031 12.5215 16.5357L12.4324 16.4388L12.3498 16.3424C11.9895 15.9076 11.7631 15.4603 11.6554 15.1495C11.6145 15.0316 11.6334 14.9021 11.7081 14.8045C11.7633 14.7325 11.8408 14.6841 11.9307 14.6668L11.9767 14.6608L12.0296 14.6606C12.1793 14.6559 12.3539 14.6025 12.4922 14.4673C12.671 14.2924 12.7626 13.9995 12.7595 13.5931C12.7568 13.2493 12.5852 13.0321 12.0123 12.7248L11.8536 12.6424L11.6758 12.5551L11.3712 12.4131L11.1029 12.2914L10.8057 12.1528C9.41776 11.4917 8.71783 10.9456 8.15687 9.89646C7.94586 9.50178 7.80498 9.10477 7.73652 8.7148L7.71425 8.56891L7.71015 8.53363L7.67064 8.5936C7.27661 9.20381 7.01881 9.87068 6.96195 10.5767L6.95287 10.7286L6.95006 10.872C6.95006 12.0019 6.56756 12.842 5.97576 13.4283L5.9007 13.5003L5.83615 13.558L6.32465 13.7972C6.34781 13.8089 6.37003 13.8203 6.39136 13.8315L6.50891 13.8954C6.75954 14.0382 6.84941 14.1412 6.87907 14.3044L6.88454 14.3404L6.88761 14.3929V15.0068C6.88761 15.0999 6.87694 15.1919 6.85533 15.2829L6.83007 15.3737L6.79946 15.458L6.72795 15.6341C6.72185 15.6491 6.72023 15.6655 6.72175 15.679L6.72623 15.6966L6.74001 15.7194L6.7909 15.7841C6.82144 15.8229 6.84374 15.8673 6.8569 15.9168L6.86699 15.968L6.86976 16.0119L6.86975 16.1568L6.90806 16.1762C6.97604 16.2163 7.02896 16.2773 7.05988 16.3509L7.07573 16.3966L7.08597 16.4449L7.08936 16.4935V16.991C7.08936 17.315 7.32541 17.5879 7.63509 17.6408L7.69398 17.6481L7.74857 17.6503H8.60005C8.8035 17.6503 8.96843 17.8152 8.96843 18.0186C8.96843 18.1881 8.85339 18.3329 8.6902 18.3752L8.64455 18.3842L8.60005 18.387H7.74857C7.03376 18.387 6.43853 17.8456 6.36106 17.1437L6.35476 17.0679L6.35264 16.9911L6.35255 16.6868L6.33108 16.6665C6.25261 16.585 6.19489 16.4857 6.16252 16.3762L6.14618 16.3094L6.13614 16.2404L6.13303 16.1747L6.13295 16.136L6.1088 16.1005C6.00897 15.9396 5.96809 15.749 5.99213 15.561L6.0042 15.4906L6.02243 15.4209L6.04537 15.3568L6.11687 15.1808C6.12815 15.153 6.13665 15.1245 6.14224 15.0966L6.14844 15.0553L6.15086 15.0068L6.15055 14.538L6.08102 14.4997L5.84981 14.384L5.5796 14.2535L5.4347 14.1803L5.3112 14.1137C5.13253 14.0133 5.01677 13.831 5.00167 13.6265C4.98658 13.422 5.0743 13.2248 5.23619 13.0993C5.79152 12.6689 6.17983 11.9881 6.21123 11.0023L6.21328 10.872C6.21328 9.98023 6.47919 9.14251 6.93445 8.37542C7.2374 7.86495 7.57813 7.45727 7.8619 7.19808C7.91971 7.04421 7.99154 6.89546 8.07716 6.7526C8.68612 5.73652 9.95135 5.08261 11.4261 5.0074L11.5649 5.00205L11.7075 5H11.8143ZM9.80571 14.9096C9.49259 14.9096 9.19777 15.0692 9.0265 15.3257L8.99173 15.3821L8.95927 15.4445L8.94503 15.4745C8.73277 15.9226 8.85231 16.4596 9.2221 16.7761L9.27943 16.8219L9.33706 16.8621L10.1046 17.3624L10.9134 16.8956L10.8872 15.9739C10.8719 15.4376 10.4738 14.9963 9.94947 14.9205L9.88038 14.9127C9.85551 14.9106 9.8306 14.9096 9.80571 14.9096ZM11.7928 5.73638L11.7115 5.73684C10.3732 5.73684 9.22315 6.27362 8.70917 7.1313C8.65456 7.22243 8.60764 7.31649 8.5683 7.41362L8.52924 7.51802C8.32213 8.12397 8.41514 8.81695 8.80658 9.54915C9.22068 10.3237 9.83114 10.8391 10.7694 11.3181L11.013 11.4384L11.122 11.4901L11.6799 11.7439C11.8401 11.8163 11.9881 11.8859 12.1244 11.9539L12.3203 12.0547C13.1633 12.5041 13.491 12.9025 13.4962 13.5875C13.5009 14.2033 13.3339 14.6814 12.997 15.0041C12.8811 15.1151 12.7516 15.2006 12.6127 15.2637L12.5326 15.2972L12.5636 15.3549C12.6412 15.4929 12.7288 15.6285 12.8265 15.7578L12.9276 15.885C13.4179 16.4704 14.0062 16.7492 14.6498 16.7273C16.0185 16.0413 16.9752 14.9451 17.4211 13.5525C17.9256 11.9765 17.7301 10.1145 16.8977 8.57389C16.2412 7.35894 15.1734 6.51285 13.7202 6.05764C13.268 5.916 12.8165 5.82547 12.384 5.77628L12.2824 5.76543L12.0953 5.74934C12.0367 5.74514 11.982 5.74207 11.9314 5.73996L11.7928 5.73638ZM12.1618 13.485C12.3134 13.5572 12.3948 13.7211 12.3648 13.8859L12.3539 13.9308L12.336 13.976L12.2882 14.0765C12.2265 14.2061 12.0964 14.2866 11.9554 14.2866C11.9011 14.2866 11.8473 14.2745 11.7972 14.2507C11.6456 14.1785 11.5643 14.0146 11.5942 13.8498L11.6052 13.805L11.623 13.7598L11.6708 13.6592C11.7583 13.4756 11.9781 13.3976 12.1618 13.485ZM8.95206 11.8294C9.0959 11.9733 9.09589 12.2065 8.95204 12.3504C8.71106 12.5913 8.38886 12.7218 8.05405 12.7218C7.71927 12.7218 7.39703 12.5913 7.15604 12.3504C7.01219 12.2065 7.01219 11.9733 7.15604 11.8294C7.28791 11.6975 7.49489 11.6865 7.63928 11.7964L7.67701 11.8294C7.87101 12.0234 8.17872 12.0363 8.38787 11.8682L8.4311 11.8294C8.57496 11.6855 8.80821 11.6855 8.95206 11.8294ZM10.6202 6.73863C10.7001 6.92578 10.6133 7.14224 10.4263 7.22212C10.0876 7.36685 9.85013 7.59685 9.75484 7.86797C9.65869 8.1416 9.70128 8.45353 9.88575 8.79858C9.98166 8.97802 9.91398 9.20121 9.73456 9.29713C9.68054 9.32601 9.6212 9.34071 9.56115 9.34071C9.42623 9.34071 9.30081 9.26715 9.23603 9.14597C8.95607 8.62235 8.89411 8.09514 9.05976 7.62379C9.22501 7.15356 9.60826 6.77063 10.1367 6.54475C10.3237 6.46477 10.5402 6.5516 10.6202 6.73863ZM15.6658 6.07687L15.5978 6.12523L15.6547 6.16222C16.4057 6.66095 17.0149 7.30405 17.4591 8.06905L17.5458 8.22367C17.6973 8.504 17.8307 8.79641 17.9453 9.09835L17.9902 9.22283L18.0734 9.15269L18.152 9.07828C18.9151 8.31516 18.9151 7.07327 18.152 6.31015C17.4808 5.63893 16.4313 5.55447 15.6658 6.07687ZM11.25 6.32664C11.4535 6.32664 11.6184 6.49157 11.6184 6.69501C11.6184 6.86446 11.5034 7.00927 11.3402 7.05162L11.2945 7.06057L11.2502 7.06339L11.2356 7.06342C11.033 7.06342 10.8684 6.89983 10.8672 6.69722C10.8662 6.52776 10.9804 6.38226 11.1433 6.33896L11.1889 6.32974L11.2337 6.32667L11.25 6.32664Z" fill="#08B89D"/>
</svg>
