<svg width="24" height="24" viewBox="0 0 24 24" fill="none" xmlns="http://www.w3.org/2000/svg">
<path d="M7.71206 8.88108C7.17437 10.3735 7.5343 12.0569 8.67583 13.1984C8.82225 13.3448 8.82225 13.5822 8.67583 13.7286C8.52941 13.8751 8.29203 13.8751 8.14561 13.7286C6.79672 12.3798 6.37132 10.3902 7.0066 8.62691C7.07679 8.43211 7.29161 8.33108 7.48641 8.40127C7.68122 8.47145 7.78224 8.68627 7.71206 8.88108ZM16.1884 8.65748C16.808 10.414 16.3791 12.388 15.0385 13.7286C14.8921 13.8751 14.6547 13.8751 14.5083 13.7286C14.3619 13.5822 14.3619 13.3448 14.5083 13.1984C15.6428 12.0639 16.0057 10.3937 15.4813 8.90692C15.4124 8.71165 15.5148 8.49751 15.7101 8.42863C15.9054 8.35975 16.1195 8.46221 16.1884 8.65748Z" fill="#08B89D"/>
<path d="M14.5006 10.6684C13.5303 10.9109 12.561 11.0321 11.5921 11.0321C10.6232 11.0321 9.65394 10.9109 8.68366 10.6684C8.44703 10.6092 8.2178 10.7882 8.2178 11.0321V12.7997C8.2178 13.7327 8.90398 14.5237 9.82768 14.6555C10.4157 14.7394 11.0039 14.7813 11.5921 14.7813C12.1804 14.7813 12.7686 14.7394 13.3566 14.6555C14.2802 14.5237 14.9664 13.7327 14.9664 12.7997V11.0321C14.9664 10.7882 14.7372 10.6092 14.5006 10.6684ZM14.1677 11.5138L14.2166 11.5026V12.7997C14.2166 13.3595 13.8049 13.8341 13.2507 13.9132C12.6977 13.9921 12.1449 14.0315 11.5921 14.0315C11.0394 14.0315 10.4866 13.9921 9.93357 13.9132L9.86777 13.9018C9.34708 13.796 8.96765 13.3371 8.96765 12.7997V11.503L9.01653 11.5138C9.87456 11.6925 10.7332 11.7819 11.5921 11.7819C12.451 11.7819 13.3097 11.6925 14.1677 11.5138Z" fill="#08B89D"/>
<path d="M13.4615 4.65833H9.7227C8.48882 4.65833 7.42157 5.51783 7.15855 6.72334L6.72672 8.70256C6.67572 8.93633 6.85376 9.15741 7.09303 9.15741H16.0912C16.3305 9.15741 16.5085 8.93633 16.4575 8.70256L16.0257 6.72334C15.7626 5.51783 14.6954 4.65833 13.4615 4.65833ZM13.4615 5.40817L13.5464 5.41008C14.3914 5.44804 15.1112 6.04988 15.2931 6.88318L15.6255 8.40756H7.55831L7.89116 6.88318C8.07904 6.0221 8.84136 5.40817 9.7227 5.40817H13.4615Z" fill="#08B89D"/>
<path d="M11.5921 5.7428C11.7844 5.7428 11.9429 5.88753 11.9645 6.074L11.967 6.11772V7.61742C11.967 7.82448 11.7992 7.99234 11.5921 7.99234C11.3998 7.99234 11.2414 7.8476 11.2197 7.66114L11.2172 7.61742V6.11772C11.2172 5.91066 11.3851 5.7428 11.5921 5.7428Z" fill="#08B89D"/>
<path d="M12.7169 6.8676C12.7169 7.05987 12.5722 7.21834 12.3857 7.24L12.342 7.24252H10.8423C10.6352 7.24252 10.4673 7.07466 10.4673 6.8676C10.4673 6.67533 10.6121 6.51686 10.7985 6.4952L10.8423 6.49268H12.342C12.549 6.49268 12.7169 6.66053 12.7169 6.8676Z" fill="#08B89D"/>
<path d="M13.4667 15.1561C13.6386 15.1561 13.7948 15.1589 13.938 15.1648L14.1436 15.176C14.7006 15.2149 15.0502 15.3144 15.4097 15.5067C15.8486 15.7414 16.1954 16.0881 16.4301 16.5271C16.6337 16.9077 16.7333 17.2773 16.767 17.8937L16.7759 18.1087C16.778 18.1836 16.7794 18.262 16.7801 18.3441L16.7807 19.625C16.7807 19.8321 16.6128 19.9999 16.4057 19.9999C16.2135 19.9999 16.055 19.8552 16.0333 19.6687L16.0308 19.625V18.4701C16.0308 18.3905 16.0302 18.3153 16.0291 18.244L16.0237 18.0414C16.002 17.4668 15.9277 17.1776 15.7689 16.8807C15.604 16.5724 15.3643 16.3327 15.0561 16.1679C14.7592 16.0091 14.47 15.9348 13.8953 15.9131L13.6928 15.9077L13.4667 15.906H9.65711C9.57755 15.906 9.50232 15.9065 9.43102 15.9077L9.22849 15.9131C8.65382 15.9348 8.36464 16.0091 8.06776 16.1679C7.75949 16.3327 7.51979 16.5724 7.35492 16.8807C7.19615 17.1776 7.12186 17.4668 7.1001 18.0414L7.09474 18.244L7.09302 18.4701V19.625C7.09302 19.8321 6.92516 19.9999 6.71809 19.9999C6.52582 19.9999 6.36735 19.8552 6.34569 19.6687L6.34317 19.625V18.4701C6.34317 18.2982 6.34591 18.142 6.35179 17.9988L6.36304 17.7932C6.4019 17.2362 6.50145 16.8866 6.6937 16.5271C6.92845 16.0881 7.27518 15.7414 7.71413 15.5067C8.0736 15.3144 8.42321 15.2149 8.98024 15.176L9.18581 15.1648C9.29325 15.1603 9.40795 15.1577 9.5311 15.1566L13.4667 15.1561Z" fill="#08B89D"/>
<path d="M9.35457 15.3438C9.54684 15.3438 9.70531 15.4885 9.72697 15.6749L9.72949 15.7187V17.2184C9.72949 17.4254 9.56163 17.5933 9.35457 17.5933C9.16229 17.5933 9.00382 17.4486 8.98217 17.2621L8.97964 17.2184V15.7187C8.97964 15.5116 9.1475 15.3438 9.35457 15.3438Z" fill="#08B89D"/>
<path d="M13.6542 15.2332C13.8465 15.2332 14.0049 15.3779 14.0266 15.5644L14.0291 15.6081V16.6449C14.0291 16.8519 13.8613 17.0198 13.6542 17.0198C13.4619 17.0198 13.3034 16.875 13.2818 16.6886L13.2793 16.6449V15.6081C13.2793 15.401 13.4471 15.2332 13.6542 15.2332Z" fill="#08B89D"/>
<path d="M9.35456 17.0308C8.62983 17.0308 8.04233 17.6183 8.04233 18.343C8.04233 19.0677 8.62983 19.6552 9.35456 19.6552C10.0793 19.6552 10.6668 19.0677 10.6668 18.343C10.6668 17.6183 10.0793 17.0308 9.35456 17.0308ZM9.35456 17.7806C9.66516 17.7806 9.91695 18.0324 9.91695 18.343C9.91695 18.6536 9.66516 18.9054 9.35456 18.9054C9.04396 18.9054 8.79217 18.6536 8.79217 18.343C8.79217 18.0324 9.04396 17.7806 9.35456 17.7806Z" fill="#08B89D"/>
<path d="M13.6542 16.6559C14.5594 16.6559 15.298 17.3687 15.3395 18.2636L15.3414 18.343V19.2803C15.3414 19.4874 15.1735 19.6553 14.9664 19.6553C14.7742 19.6553 14.6157 19.5105 14.594 19.3241L14.5915 19.2803V18.343C14.5915 17.8254 14.1719 17.4057 13.6542 17.4057C13.1572 17.4057 12.7506 17.7925 12.7189 18.2814L12.7169 18.343V19.2803C12.7169 19.4874 12.549 19.6553 12.342 19.6553C12.1497 19.6553 11.9912 19.5105 11.9696 19.3241L11.967 19.2803V18.343C11.967 17.4112 12.7224 16.6559 13.6542 16.6559Z" fill="#08B89D"/>
<path d="M15.6788 9.79473C15.8444 9.67049 16.0794 9.70407 16.2037 9.86972C16.3183 10.0226 16.2986 10.2346 16.1645 10.3641L16.1287 10.3946L14.629 11.5194C14.4633 11.6436 14.2283 11.6101 14.1041 11.4444C13.9894 11.2915 14.0092 11.0795 14.1432 10.9501L14.1791 10.9195L15.6788 9.79473Z" fill="#08B89D"/>
<path d="M7.50543 9.79473C7.33978 9.67049 7.10478 9.70407 6.98054 9.86972C6.86586 10.0226 6.88564 10.2346 7.01966 10.3641L7.05553 10.3946L8.55522 11.5194C8.72087 11.6436 8.95588 11.6101 9.08011 11.4444C9.1948 11.2915 9.17501 11.0795 9.041 10.9501L9.00513 10.9195L7.50543 9.79473Z" fill="#08B89D"/>
</svg>
