<svg width="24" height="24" viewBox="0 0 24 24" fill="none" xmlns="http://www.w3.org/2000/svg">
<g clip-path="url(#clip0_12:1017)">
<path d="M7.68987 8.88984C7.17267 10.3773 7.53861 12.0438 8.67201 13.1772C8.81889 13.3241 8.81889 13.5622 8.67201 13.7091C8.52514 13.856 8.28701 13.856 8.14014 13.7091C6.80088 12.3698 6.36836 10.4002 6.97941 8.64281C7.04762 8.44662 7.26196 8.34288 7.45815 8.4111C7.65434 8.47931 7.75808 8.69365 7.68987 8.88984ZM16.2464 8.73542C16.8113 10.4716 16.369 12.3946 15.0545 13.7091C14.9076 13.856 14.6695 13.856 14.5226 13.7091C14.3758 13.5622 14.3758 13.3241 14.5226 13.1772C15.6351 12.0648 16.0093 10.4378 15.5311 8.96815C15.4669 8.77063 15.5749 8.55842 15.7724 8.49415C15.9699 8.42988 16.1821 8.5379 16.2464 8.73542Z" fill="#08B89D"/>
<path d="M14.5149 10.6392C13.5416 10.8825 12.5693 11.0041 11.5974 11.0041C10.6254 11.0041 9.65315 10.8825 8.67985 10.6392C8.44248 10.5799 8.21254 10.7594 8.21254 11.0041V12.7772C8.21254 13.7131 8.90086 14.5066 9.82743 14.6388C10.4173 14.7229 11.0073 14.765 11.5974 14.765C12.1875 14.765 12.7775 14.7229 13.3673 14.6388C14.2939 14.5066 14.9822 13.7131 14.9822 12.7772V11.0041C14.9822 10.7594 14.7523 10.5799 14.5149 10.6392ZM14.181 11.4873L14.23 11.4761V12.7772C14.23 13.3387 13.817 13.8148 13.2611 13.8941C12.7064 13.9733 12.1518 14.0128 11.5974 14.0128C11.0429 14.0128 10.4884 13.9733 9.93366 13.8941L9.86765 13.8827C9.34534 13.7766 8.96472 13.3163 8.96472 12.7772V11.4765L9.01376 11.4873C9.87446 11.6666 10.7358 11.7563 11.5974 11.7563C12.459 11.7563 13.3203 11.6666 14.181 11.4873Z" fill="#08B89D"/>
<path d="M13.4726 4.61047H9.72213C8.48441 4.61047 7.41383 5.47266 7.14999 6.68192L6.71682 8.66732C6.66565 8.90181 6.84425 9.12358 7.08426 9.12358H16.1105C16.3505 9.12358 16.5291 8.90181 16.4779 8.66732L16.0447 6.68192C15.7809 5.47266 14.7103 4.61047 13.4726 4.61047ZM13.4726 5.36266L13.5578 5.36457C14.4054 5.40265 15.1275 6.00637 15.3098 6.84227L15.6434 8.37139H7.55099L7.88489 6.84227C8.07335 5.9785 8.83804 5.36266 9.72213 5.36266H13.4726Z" fill="#08B89D"/>
<path d="M11.5974 5.69836C11.7902 5.69836 11.9492 5.84355 11.9709 6.0306L11.9735 6.07446V7.57883C11.9735 7.78654 11.8051 7.95492 11.5974 7.95492C11.4045 7.95492 11.2455 7.80973 11.2238 7.62269L11.2213 7.57883V6.07446C11.2213 5.86675 11.3896 5.69836 11.5974 5.69836Z" fill="#08B89D"/>
<path d="M12.7256 6.82665C12.7256 7.01953 12.5805 7.17849 12.3934 7.20022L12.3496 7.20275H10.8452C10.6375 7.20275 10.4691 7.03436 10.4691 6.82665C10.4691 6.63378 10.6143 6.47482 10.8013 6.45309L10.8452 6.45056H12.3496C12.5573 6.45056 12.7256 6.61894 12.7256 6.82665Z" fill="#08B89D"/>
<path d="M10.2821 15.1416L12.7256 15.1411C12.8981 15.1411 13.0547 15.1439 13.1984 15.1498L13.4046 15.161C13.9634 15.2 14.3141 15.2999 14.6747 15.4927C15.115 15.7282 15.4628 16.076 15.6983 16.5164C15.9025 16.8981 16.0024 17.2689 16.0362 17.8872L16.0451 18.1029C16.0473 18.178 16.0487 18.2566 16.0494 18.339L16.0499 19.6239C16.0499 19.8316 15.8815 20 15.6738 20C15.4809 20 15.322 19.8548 15.3003 19.6678L15.2977 19.6239V18.4654C15.2977 18.3856 15.2972 18.3101 15.296 18.2386L15.2906 18.0354C15.2688 17.459 15.1943 17.1689 15.035 16.8711C14.8696 16.5618 14.6292 16.3214 14.3199 16.156C14.0221 15.9967 13.7321 15.9222 13.1556 15.9004L12.9524 15.895L12.7256 15.8933H10.4085C10.3287 15.8933 10.2533 15.8939 10.1817 15.895L9.97857 15.9004C9.40211 15.9222 9.11203 15.9967 8.81422 16.156C8.50499 16.3214 8.26455 16.5618 8.09917 16.8711C7.9399 17.1689 7.86538 17.459 7.84354 18.0354L7.83817 18.2386L7.83644 18.4654V19.6239C7.83644 19.8316 7.66806 20 7.46035 20C7.26748 20 7.10851 19.8548 7.08679 19.6678L7.08426 19.6239V18.4654C7.08426 18.293 7.087 18.1363 7.09291 17.9926L7.10419 17.7864C7.14317 17.2276 7.24303 16.8769 7.43588 16.5164C7.67136 16.076 8.01918 15.7282 8.4595 15.4927C8.82008 15.2999 9.17078 15.2 9.72955 15.161L9.93576 15.1498C10.0435 15.1453 10.1586 15.1427 10.2821 15.1416Z" fill="#08B89D"/>
<path d="M15.6968 9.76298C15.8629 9.63836 16.0987 9.67204 16.2233 9.8382C16.3383 9.99159 16.3185 10.2043 16.1841 10.3341L16.1481 10.3647L14.6437 11.493C14.4775 11.6176 14.2418 11.584 14.1172 11.4178C14.0021 11.2644 14.022 11.0517 14.1564 10.9219L14.1924 10.8913L15.6968 9.76298Z" fill="#08B89D"/>
<path d="M7.49796 9.76298C7.33179 9.63836 7.09606 9.67204 6.97143 9.8382C6.85639 9.99159 6.87624 10.2043 7.01067 10.3341L7.04665 10.3647L8.55102 11.493C8.71718 11.6176 8.95292 11.584 9.07755 11.4178C9.19259 11.2644 9.17274 11.0517 9.03831 10.9219L9.00233 10.8913L7.49796 9.76298Z" fill="#08B89D"/>
</g>
<defs>
<clipPath id="clip0_12:1017">
<rect width="16" height="16" fill="white" transform="translate(4 4)"/>
</clipPath>
</defs>
</svg>
