<svg width="24" height="24" viewBox="0 0 24 24" fill="none" xmlns="http://www.w3.org/2000/svg">
<path d="M12.838 6.56877L12.9363 6.67351L13.0136 6.76062L13.0491 6.72264C13.457 6.30656 14.0972 6.19601 14.6257 6.47659L14.697 6.51729L14.7639 6.56088L14.8097 6.59266C15.0036 6.72715 15.2593 6.73836 15.4634 6.62634L15.5177 6.59273L15.5636 6.56087C16.1378 6.16262 16.9302 6.27765 17.3688 6.82281C17.4924 6.97659 17.468 7.2015 17.3143 7.32521C17.1605 7.44884 16.9356 7.42449 16.8119 7.27074C16.6241 7.03735 16.2965 6.96007 16.0217 7.11608L15.9709 7.14808L15.9251 7.17987C15.4935 7.47933 14.922 7.49507 14.4756 7.22715L14.4024 7.17987L14.3566 7.14809C14.0753 6.95294 13.707 7.02651 13.5124 7.27512L13.48 7.32079L13.4608 7.35302L13.5031 7.41827C13.951 8.13325 14.2114 8.94417 14.2652 9.79419L14.2732 9.9647L14.2756 10.126C14.2756 10.5029 14.2349 10.8823 14.154 11.2614L14.1103 11.4509L14.0776 11.5722L14.1916 11.5415C15.3113 11.2567 16.5105 11.4766 17.4629 12.1597L17.5677 12.2375L17.5944 12.2586L17.6186 12.2434C17.8149 12.1022 17.9143 11.8582 17.8657 11.6174L17.8519 11.5619L17.8326 11.5069L17.8118 11.4551C17.6153 10.9662 17.7283 10.4038 18.0912 10.0282L18.1506 9.97051L18.1918 9.93291C18.5347 9.61983 18.4233 9.06269 18.0032 8.89714L17.9513 8.87919L17.8978 8.86317C17.5372 8.7551 17.2376 8.49835 17.0755 8.15851C16.9906 7.9804 17.0661 7.76711 17.2442 7.68219C17.4086 7.60374 17.603 7.66206 17.6987 7.8116L17.7205 7.85086C17.7641 7.94221 17.8233 8.01419 17.8949 8.07038L17.9153 8.08495L17.967 8.11555L18.0566 8.15986L18.1363 8.19402L18.1788 8.2087L18.1564 8.1946C19.1275 8.48558 19.426 9.70097 18.7266 10.4098L18.6736 10.4607L18.6324 10.4983C18.457 10.6585 18.3894 10.9076 18.4555 11.1328L18.4748 11.1885L18.4957 11.2403C18.6957 11.7383 18.5781 12.2817 18.2313 12.6512L18.1746 12.708L18.122 12.7546L18.1921 12.8355C18.726 13.4713 19.0491 14.259 19.1071 15.0987L19.1143 15.2391L19.1166 15.3733C19.1166 17.5531 17.3435 19.3261 15.1638 19.3261C14.5104 19.3261 13.8793 19.1664 13.3145 18.8662L13.2708 18.8418L13.2183 18.8807C12.8986 19.0995 12.4919 19.1568 12.124 19.0344L12.0459 19.0054L11.9691 18.9709C11.043 18.5156 10.1706 18.0229 9.36914 17.5026L9.14963 17.3578L8.90456 17.5197C8.65888 17.6787 8.40656 17.835 8.14776 17.9887L7.88682 18.1415L7.53224 18.3424C7.35977 18.4382 7.1422 18.3762 7.04635 18.2037C6.95045 18.0312 7.01253 17.8136 7.185 17.7178C8.70583 16.8723 10.0445 15.9231 11.1084 14.8939L11.2616 14.7426L11.2749 14.664C11.4719 13.5821 12.115 12.6351 13.0327 12.0457L13.1398 11.9793L13.204 11.9418L13.2519 11.8172C13.4162 11.3656 13.5154 10.912 13.5486 10.4624L13.5579 10.294L13.561 10.1261C13.561 8.72616 12.9045 7.44505 11.8272 6.62088L11.7217 6.54256L11.6988 6.52622L11.7109 6.5577C11.9576 7.24881 11.9448 8.10895 11.7358 9.06287L11.6991 9.22271L11.6629 9.36876C11.4457 10.2145 11.0792 11.0985 10.7751 11.5684L10.7328 11.6332L10.6761 11.7258L10.5491 11.921L10.4897 12.0091L10.3741 12.1731C10.102 12.5411 9.75425 12.9317 9.31093 13.3439C8.2284 14.3504 6.74127 15.3344 5.00918 16.1913C4.76929 16.31 4.65928 16.5822 4.74304 16.8293L4.7624 16.8783L5.3039 18.0753C5.42625 18.3458 5.74788 18.4608 6.01489 18.3295L6.28622 18.1943C6.46228 18.1051 6.67733 18.1758 6.76637 18.3519C6.85543 18.528 6.78478 18.743 6.60866 18.832L6.33017 18.9708C5.72185 19.2699 4.99507 19.0259 4.68546 18.4367L4.65281 18.3698L4.11131 17.1728C3.83477 16.5616 4.09023 15.8486 4.69232 15.5508C5.12704 15.3357 5.54689 15.1118 5.94899 14.8808L6.09803 14.793L6.08076 14.7739C4.83389 13.3903 4.14687 11.9648 4.03877 10.5281L4.0294 10.3742L4.02447 10.2201C3.97563 7.44305 6.10647 5.15282 8.87478 5.00734C10.3891 4.9275 11.8096 5.50227 12.838 6.56877ZM15.1638 12.1351C13.3784 12.1351 11.9256 13.5879 11.9256 15.3733C11.9256 17.1587 13.3784 18.6115 15.1638 18.6115C16.9492 18.6115 18.4019 17.1587 18.4019 15.3733C18.4019 13.5879 16.9492 12.1351 15.1638 12.1351ZM11.23 15.7574L11.024 15.94C10.6613 16.2552 10.2746 16.5619 9.86496 16.8608L9.78363 16.9186L9.8882 16.9869C10.5375 17.4017 11.2338 17.7983 11.9676 18.1712L12.2844 18.3295C12.3761 18.3746 12.4772 18.391 12.5753 18.38L12.596 18.3762C11.8424 17.7312 11.3542 16.8274 11.238 15.8347L11.23 15.7574ZM15.6855 12.8857C15.9688 12.8857 16.2022 13.1024 16.2287 13.3789L16.2312 13.4314L16.2308 14.3058L17.1057 14.3059C17.3713 14.3059 17.593 14.4964 17.6415 14.748L17.6488 14.7991L17.6513 14.8516V15.8951C17.6513 16.1784 17.4346 16.4117 17.1582 16.4382L17.1057 16.4407L16.2308 16.4406L16.2312 17.3152C16.2312 17.5808 16.0407 17.8026 15.7891 17.8511L15.738 17.8584L15.6855 17.8609H14.642C14.3587 17.8609 14.1253 17.6442 14.0988 17.3677L14.0963 17.3152L14.096 16.4406L13.2218 16.4407C12.9562 16.4407 12.7345 16.2503 12.686 15.9987L12.6787 15.9476L12.6762 15.8951V14.8516C12.6762 14.5683 12.8929 14.3349 13.1693 14.3084L13.2218 14.3059L14.096 14.3058L14.0963 13.4314C14.0963 13.1658 14.2868 12.9441 14.5384 12.8956L14.5895 12.8882L14.642 12.8857H15.6855ZM15.5164 13.6002H14.8108L14.811 14.4748C14.811 14.7582 14.5943 14.9915 14.3178 15.018L14.2653 15.0205L13.3904 15.0202V15.7258L14.2653 15.7261C14.5486 15.7261 14.782 15.9428 14.8085 16.2192L14.811 16.2717L14.8108 17.1462H15.5164L15.5165 16.2717C15.5165 15.9884 15.7332 15.755 16.0097 15.7286L16.0622 15.7261L16.9364 15.7258V15.0202L16.0622 15.0205C15.7789 15.0205 15.5455 14.8038 15.519 14.5273L15.5165 14.4748L15.5164 13.6002ZM6.60443 6.51422L6.58599 6.52752C5.45294 7.33243 4.75473 8.63914 4.73862 10.0765L4.73904 10.2075C4.76331 11.5878 5.40933 12.9819 6.66691 14.3567L6.72043 14.4142L6.84268 14.3367C7.49376 13.9159 8.07636 13.4816 8.57656 13.0438L8.63123 12.9946L8.60621 12.9693C8.35362 12.7083 8.13965 12.4569 7.95822 12.2156L7.84451 12.0595L7.68282 11.8177L7.57671 11.6494L7.57123 11.6386L7.52417 11.5682C7.22014 11.0984 6.85369 10.2144 6.63649 9.3687C6.37055 8.33342 6.31937 7.39589 6.5587 6.64594L6.60443 6.51422ZM9.14969 8.79138C8.41387 8.79138 7.81503 9.39021 7.81503 10.126C7.81503 10.8025 8.29762 11.6086 9.05372 12.404L9.14963 12.503L9.24589 12.4041C9.97038 11.6423 10.4436 10.8703 10.4818 10.2113L10.4843 10.126C10.4843 9.39021 9.88548 8.79138 9.14969 8.79138ZM16.4243 9.4794C16.9001 9.4794 17.2869 9.8662 17.2869 10.3419C17.2869 10.8176 16.9001 11.2045 16.4243 11.2045C15.9486 11.2045 15.5618 10.8177 15.5618 10.3419C15.5618 9.8662 15.9486 9.4794 16.4243 9.4794ZM16.4243 10.194C16.3429 10.194 16.2764 10.2605 16.2764 10.3419C16.2764 10.4234 16.3429 10.4898 16.4243 10.4898C16.5058 10.4898 16.5722 10.4234 16.5722 10.3419C16.5722 10.2605 16.5058 10.194 16.4243 10.194ZM15.2324 7.79325C15.7081 7.79325 16.0949 8.18007 16.095 8.65581C16.095 9.13152 15.7081 9.51835 15.2324 9.51835C14.7567 9.51835 14.3699 9.13153 14.3699 8.65581C14.3699 8.18007 14.7567 7.79325 15.2324 7.79325ZM7.34437 6.6021C7.0498 7.19941 7.05846 8.0565 7.28674 9.02329L7.32763 9.18822L7.33679 9.17136C7.67028 8.53936 8.31984 8.112 9.05707 8.07882L9.14966 8.07674C9.92479 8.07674 10.6151 8.51306 10.9625 9.17141L10.9712 9.18862L10.9785 9.16219C11.2275 8.18528 11.2608 7.31088 10.995 6.68918L10.955 6.6021C10.6832 6.05092 10.1397 5.75324 9.31868 5.71827C8.3514 5.67794 7.66512 5.95164 7.34437 6.6021ZM15.2324 8.50785C15.151 8.50785 15.0845 8.57432 15.0845 8.65578C15.0845 8.73722 15.151 8.80368 15.2324 8.80368C15.3138 8.80368 15.3803 8.73721 15.3803 8.65578C15.3803 8.57432 15.3139 8.50785 15.2324 8.50785Z" fill="#08B89D"/>
</svg>
