<svg width="24" height="24" viewBox="0 0 24 24" fill="none" xmlns="http://www.w3.org/2000/svg">
<path d="M15.301 5L14.686 5.77585C14.2531 6.3227 14.0145 7.00965 14.0145 7.70986C14.0145 7.87252 14.0336 8.03331 14.0713 8.19084L14.0816 8.2292L14.122 8.21612C14.2448 8.17915 14.3693 8.15103 14.4955 8.13208L14.6222 8.1162L14.7499 8.10651L14.8793 8.10323L14.9748 8.10325L15.0946 8.10603C15.7409 8.136 16.3434 8.40472 16.8025 8.86837C17.2327 9.30292 17.4935 9.86491 17.5489 10.4724L17.5573 10.5945L17.56 10.7152V10.7966C17.56 12.1971 16.9012 13.4849 15.82 14.3048L15.714 14.3827L15.6076 14.4556L15.6783 14.4973C16.4798 14.9894 17.0077 15.85 17.079 16.7958L17.0852 16.9053L17.0873 17.0155C17.0873 18.5691 15.8875 19.8514 14.3652 19.9535L14.2676 19.9584L14.1709 19.96H8.73455C8.29924 19.96 7.94546 19.6027 7.94546 19.1639C7.94546 19.0717 7.96116 18.9817 7.99114 18.897L8.01628 18.8346L8.0396 18.7876L7.97668 18.7431C7.70723 18.5385 7.52801 18.2355 7.48354 17.8972L7.47526 17.8119L7.47273 17.7316C7.47273 17.4919 7.53998 17.2623 7.66253 17.0639L7.71106 16.9911L7.7524 16.9364L7.70861 16.9132C7.32425 16.6936 7.06195 16.3008 7.00962 15.8535L7.00229 15.7691L7 15.6883C7 15.2771 7.17679 14.8901 7.48362 14.6227L7.55134 14.5673L7.594 14.5364L7.57666 14.4843C7.53105 14.3358 7.50006 14.1842 7.48447 14.0306L7.47568 13.9151L7.47273 13.7989C7.47273 12.4007 8.57494 11.2571 9.95035 11.2081L10.0424 11.2065L10.1706 11.2098L10.2962 11.2193L11.6069 11.3515C11.7602 11.3667 11.9079 11.3177 12.0222 11.2134C12.137 11.1083 12.2 10.965 12.2 10.8086C12.2 10.333 12.3241 9.8748 12.5551 9.46876L12.5972 9.3984L12.5519 9.30842C12.3629 8.91204 12.2476 8.48533 12.2119 8.0499L12.203 7.90446L12.2 7.75856C12.2 6.99558 12.3798 6.24377 12.7237 5.56463L12.7998 5.42023L12.8801 5.2798L13.0229 5.03918L13.0917 5H15.301ZM14.9731 8.74064H14.8793C13.78 8.74064 12.88 9.62131 12.8345 10.7213L12.8327 10.8086C12.8327 11.1421 12.6923 11.4616 12.4474 11.6854C12.2443 11.8712 11.9819 11.9785 11.7065 11.9902L11.6235 11.9908L11.544 11.9857L10.2329 11.8535C10.1686 11.8471 10.1046 11.8439 10.0405 11.8439C8.97367 11.8439 8.10546 12.7207 8.10546 13.7989C8.10546 14.6812 8.77452 15.4136 9.63035 15.4955L9.71112 15.5013L9.79227 15.5032H14.4073C15.1033 15.5032 15.6691 16.0746 15.6691 16.7768C15.6691 17.427 15.1825 17.9691 14.5498 18.0421L14.479 18.0483L14.4073 18.0503H10.7818V17.4129H14.4073C14.7539 17.4129 15.0364 17.1276 15.0364 16.7768C15.0364 16.4649 14.8121 16.2021 14.518 16.1502L14.4621 16.143L14.4073 16.1406H9.79227C9.05632 16.1406 8.37898 15.7889 7.94505 15.2102L7.8828 15.1228L7.8482 15.1562C7.72631 15.2827 7.65086 15.4464 7.6356 15.6219L7.63273 15.6883C7.63273 16.0711 7.9117 16.3923 8.27562 16.449L8.33703 16.456L8.39418 16.4581H14.2509V17.0955H8.73455C8.38796 17.0955 8.10546 17.3808 8.10546 17.7316C8.10546 18.0435 8.32971 18.3063 8.62383 18.3582L8.67976 18.3654L8.73455 18.3677H12.36V19.0052H8.73455C8.64853 19.0052 8.57818 19.0763 8.57818 19.1639C8.57818 19.2308 8.61952 19.289 8.67434 19.3115L8.70274 19.3197L8.73455 19.3226H14.1709C15.4299 19.3226 16.4545 18.2877 16.4545 17.0155C16.4545 16.0588 15.8562 15.1941 14.9766 14.8581L14.9152 14.836L14.7969 14.8856C14.3487 15.0632 13.8743 15.1643 13.388 15.1827L13.2255 15.1858C12.7244 15.1858 12.2298 15.0632 11.7833 14.8313L11.6627 14.7653L11.5676 14.708L9.91636 14.7084C9.37273 14.7084 8.92669 14.2793 8.89296 13.7394L8.89091 13.6741C8.89065 13.3978 8.99733 13.1374 9.19088 12.9421C9.38466 12.7467 9.64268 12.6387 9.91636 12.6387C10.2542 12.6387 10.5801 12.778 10.8174 13.0212L10.8749 13.0841L10.926 13.1484L11.2097 13.5304C11.6832 14.1678 12.4369 14.5484 13.2255 14.5484C15.1913 14.5484 16.811 12.9845 16.9213 11.0124L16.9258 10.9044L16.9273 10.7966V10.7152C16.9273 10.1876 16.7239 9.69169 16.3545 9.3187C15.9855 8.94577 15.4952 8.74064 14.9731 8.74064ZM9.91636 13.2761C9.81146 13.2761 9.71305 13.3173 9.63883 13.3922C9.56452 13.4675 9.52364 13.5673 9.52364 13.6737C9.52381 13.8621 9.65472 14.022 9.82802 14.0613L9.87218 14.0686L9.91636 14.071L10.8296 14.0708L10.7809 14.0127L10.703 13.9122L10.4194 13.5303C10.3274 13.4066 10.1931 13.3216 10.0455 13.2899L9.98148 13.2796L9.91636 13.2761ZM14.0032 5.6388L13.4008 5.6456L13.348 5.73836C13.0346 6.31237 12.8589 6.9527 12.8354 7.60728L12.8327 7.75856C12.8327 8.12094 12.9017 8.48222 13.0346 8.8246L13.0424 8.8432L13.0464 8.83949C13.1691 8.72311 13.3027 8.61839 13.4454 8.52668L13.4996 8.4932L13.4767 8.41622C13.4264 8.23101 13.3958 8.04276 13.3856 7.85271L13.3818 7.70986C13.3818 7.01508 13.5766 6.33019 13.938 5.741L14.0032 5.6388Z" fill="#08B89D"/>
<path d="M9.26241 17.364H10.4624V18.0972H9.26241V17.364Z" fill="#08B89D"/>
<path d="M12.6949 18.3192H13.9538V19.0566H12.6949V18.3192Z" fill="#08B89D"/>
</svg>
