<svg width="24" height="24" viewBox="0 0 24 24" fill="none" xmlns="http://www.w3.org/2000/svg">
<path d="M13.8183 5.01018C14.2364 5.05762 14.6148 5.26789 14.8754 5.5892L14.9295 5.65974L14.9796 5.7332L15.0665 5.72872L15.0952 5.72837C16.6533 5.73699 17.9846 6.82776 18.3135 8.33215L18.334 8.436L18.3923 8.44891C19.0442 8.6101 19.5269 9.16522 19.5961 9.83379L19.6024 9.91454L19.6046 9.99628C19.6039 10.1781 19.5724 10.3582 19.5116 10.5289L19.4988 10.5604L19.517 10.5902C20.0014 11.4217 19.9488 12.4587 19.3916 13.2354L19.3277 13.3206L19.2824 13.3752L19.2639 13.4579C19.0739 14.2327 18.6088 14.9092 17.96 15.364L17.856 15.434L17.7904 15.4744L17.8516 15.5601C18.2812 16.1921 18.5099 17.0263 18.5976 17.8958L18.6124 18.0592L18.6235 18.214C18.6336 18.3862 18.5721 18.5549 18.4537 18.6802C18.3501 18.7899 18.2109 18.8579 18.0623 18.873L17.9981 18.8762H17.2581C16.9563 18.8777 16.696 18.6645 16.6376 18.3672C16.5408 17.8498 16.1922 17.402 15.459 17.1576C14.1597 16.7245 13.6454 16.234 13.527 15.3501L13.5171 15.2661L13.512 15.2128L13.4715 15.2094C13.3089 15.1916 13.1477 15.1632 12.9889 15.1243L12.8309 15.0819L12.7572 15.0584L12.7446 15.0709C12.2392 15.5389 11.5605 15.7703 10.8775 15.7113L10.7697 15.6996L10.667 15.6839C9.98501 15.5647 9.39098 15.1626 9.0258 14.5857L8.97007 14.4932L8.9272 14.4144C8.07798 14.6223 7.18435 14.471 6.4542 14.0006L6.35567 13.9345L6.25929 13.8644C5.46532 13.2643 4.99907 12.3263 5 11.3313C4.99908 10.7335 5.16898 10.1488 5.48838 9.64553L5.5236 9.5916L5.51966 9.57492C5.37153 8.88049 5.71046 8.17923 6.32909 7.85775L6.4017 7.82236L6.4628 7.796C6.499 7.2717 6.74266 6.78687 7.13672 6.44678L7.21752 6.38073L7.29714 6.32225C7.75496 6.00343 8.324 5.89696 8.86099 6.02248L8.962 6.0488L8.96535 6.0444C9.42853 5.44892 10.1185 5.07511 10.8673 5.01012L10.98 5.0027L11.0884 5C11.5275 5 11.9581 5.10794 12.343 5.31195L12.4468 5.36996L12.548 5.4324L12.5899 5.39426C12.925 5.10089 13.3704 4.95935 13.8183 5.01018ZM13.6376 5.76558C13.1786 5.76558 12.8065 6.1377 12.8065 6.59674C12.8065 6.80815 12.6351 6.97953 12.4237 6.97953C12.2123 6.97953 12.0409 6.80815 12.0409 6.5968C12.0408 6.45173 12.0607 6.3077 12.0996 6.16866L12.1296 6.0728L12.0487 6.02295C11.787 5.87157 11.4927 5.78404 11.19 5.76819L11.0888 5.76558C10.4089 5.76788 9.77981 6.12565 9.43079 6.70786C9.34042 6.86125 9.27189 7.0265 9.22712 7.19898C9.20148 7.29728 9.13782 7.38136 9.05015 7.4327C8.96249 7.48403 8.85801 7.49842 8.75987 7.47271C8.66157 7.44707 8.57749 7.38341 8.52616 7.29575C8.47482 7.20808 8.46044 7.1036 8.4865 7.00412C8.49944 6.95646 8.51368 6.90919 8.5292 6.86235L8.5704 6.7476L8.49583 6.73982L8.41786 6.73674C7.87142 6.7375 7.40491 7.10605 7.26523 7.61689L7.25 7.6792L7.27486 7.68171C7.6746 7.72913 8.04277 7.9276 8.30189 8.23778L8.35972 8.31132C8.48656 8.48045 8.45228 8.72038 8.28316 8.84723C8.11403 8.97407 7.8741 8.93979 7.74661 8.7698C7.59116 8.55918 7.34461 8.43529 7.08218 8.43626C6.70821 8.43588 6.38003 8.68531 6.28029 9.04574C6.18054 9.40617 6.3338 9.78883 6.65494 9.98087C6.77221 10.0512 6.84303 10.1788 6.84073 10.3155C6.83843 10.4523 6.76336 10.5774 6.64379 10.6438C6.52422 10.7102 6.37832 10.7077 6.26021 10.6368C6.17247 10.5834 6.09031 10.5216 6.0148 10.4526L5.956 10.3956L5.93561 10.4434C5.83914 10.6847 5.78274 10.9405 5.76893 11.2007L5.76559 11.331C5.76602 12.0814 6.11578 12.7887 6.71176 13.2445C7.25097 13.6569 7.93611 13.8209 8.59812 13.7032L8.6784 13.6868L8.65849 13.5507C8.6531 13.5047 8.64901 13.4586 8.64623 13.4124L8.642 13.2844L8.63425 13.2839C7.98054 13.2124 7.46662 12.6761 7.42999 12.0126L7.42791 11.9384C7.42746 11.7269 7.59678 11.5542 7.80827 11.5505C7.90963 11.5487 8.00746 11.5877 8.07986 11.6586C8.14019 11.7178 8.17867 11.795 8.18999 11.878L8.19348 11.9284L8.19347 11.9404C8.19075 12.1085 8.26139 12.2694 8.38695 12.3812C8.48112 12.465 8.59917 12.515 8.72262 12.5254L8.76 12.5264L8.76925 12.4969C8.81135 12.3708 8.86369 12.2484 8.92579 12.1309L8.99111 12.015C9.10008 11.8338 9.3353 11.7753 9.51647 11.8843C9.69764 11.9933 9.75616 12.2285 9.64716 12.4097C9.39113 12.835 9.33761 13.3522 9.50131 13.8215C9.69717 14.3912 10.1819 14.8118 10.7728 14.9251C11.3633 15.0384 11.9694 14.8272 12.3627 14.3705C12.4689 14.2495 12.6391 14.2073 12.7913 14.2652C13.2045 14.4287 13.6495 14.4957 14.094 14.4611C14.3227 14.4458 14.5489 14.4042 14.768 14.3373C14.9701 14.2752 15.1843 14.3888 15.2463 14.5909C15.3083 14.793 15.1948 15.0071 14.9925 15.0692C14.7738 15.1361 14.5495 15.1828 14.3176 15.2091L14.2796 15.2124L14.2866 15.266C14.361 15.781 14.6492 16.0548 15.4956 16.3598L15.7009 16.4309C16.6697 16.7538 17.1739 17.3739 17.3542 18.0651L17.3652 18.1112H17.8472L17.8367 17.9872C17.7526 17.1277 17.5203 16.325 17.0872 15.8158L17.0752 15.8028L17.0279 15.8186C16.9357 15.8468 16.8422 15.8708 16.7479 15.8906L16.6059 15.9171C16.5853 15.9206 16.5645 15.9222 16.5444 15.9222C16.3443 15.9227 16.1776 15.769 16.1618 15.5695C16.1461 15.3701 16.2866 15.1921 16.4834 15.1613C17.103 15.0603 17.6554 14.7323 18.0398 14.2516L18.1124 14.1556L18.1053 14.1583C17.543 14.3305 16.9327 14.2928 16.3921 14.0452L16.2916 13.9963C16.1354 13.9178 15.9885 13.8222 15.8537 13.7113L15.824 13.6852L15.7706 13.7056C15.1619 13.9156 14.4821 13.663 14.1615 13.0974L14.1261 13.0307C14.0646 12.9085 14.073 12.7627 14.148 12.6483C14.2231 12.534 14.3535 12.4683 14.4901 12.4761C14.6268 12.484 14.7488 12.5641 14.8106 12.6868C14.9324 12.9313 15.2064 13.0597 15.4722 12.997C15.7381 12.9343 15.9258 12.6969 15.9255 12.4231C15.9258 12.3505 15.9125 12.2787 15.8864 12.2115L15.8645 12.162C15.803 12.0398 15.8113 11.894 15.8864 11.7796C15.9615 11.6653 16.0919 11.5996 16.2285 11.6074C16.3651 11.6153 16.4872 11.6954 16.5488 11.8179C16.7689 12.2573 16.7313 12.7767 16.4618 13.1772L16.448 13.1956L16.4853 13.2219L16.5613 13.2697L16.64 13.3131C16.8748 13.4352 17.1357 13.4985 17.4004 13.4976C17.8428 13.4963 18.2657 13.3216 18.5815 13.0111L18.6475 12.9425C19.0481 12.4983 19.1777 11.8844 19.0068 11.3283L18.982 11.2548L18.9676 11.2671C18.9085 11.3124 18.8463 11.3535 18.7813 11.3903L18.6817 11.4422C18.4902 11.5318 18.2623 11.4492 18.1726 11.2577C18.0894 11.0798 18.1547 10.8706 18.3179 10.7698L18.3573 10.7486C18.5147 10.6751 18.6456 10.5548 18.7317 10.4049C18.9255 10.0624 18.8526 9.63081 18.557 9.37103C18.2613 9.11124 17.8239 9.09446 17.5092 9.33086C17.34 9.45771 17.1001 9.42343 16.9733 9.2543C16.8464 9.08518 16.8807 8.84524 17.05 8.71825C17.1871 8.61583 17.3395 8.53658 17.5011 8.48318L17.5608 8.4652L17.5455 8.40047C17.2744 7.35419 16.3685 6.59146 15.2919 6.50259L15.2304 6.4984L15.2344 6.59674C15.2344 6.80815 15.063 6.97953 14.8516 6.97953C14.6402 6.97953 14.4688 6.80815 14.4688 6.59674C14.4688 6.1377 14.0967 5.76558 13.6376 5.76558Z" fill="#08B89D"/>
</svg>
