<svg width="24" height="24" viewBox="0 0 24 24" fill="none" xmlns="http://www.w3.org/2000/svg">
<path d="M17.6569 6.12637C20.781 9.25056 20.781 14.3159 17.6569 17.4401C17.4884 17.6086 17.2152 17.6086 17.0467 17.4401C16.8782 17.2716 16.8782 16.9984 17.0467 16.8299C19.8339 14.0427 19.8339 9.52374 17.0467 6.73653C16.8782 6.56804 16.8782 6.29486 17.0467 6.12637C17.2152 5.95788 17.4884 5.95788 17.6569 6.12637ZM6.95331 6.12637C7.1218 6.29486 7.1218 6.56804 6.95331 6.73653C4.16609 9.52374 4.16609 14.0427 6.95331 16.8299C7.1218 16.9984 7.1218 17.2716 6.95331 17.4401C6.78481 17.6086 6.51164 17.6086 6.34315 17.4401C3.21895 14.3159 3.21895 9.25056 6.34315 6.12637C6.51164 5.95788 6.78481 5.95788 6.95331 6.12637Z" fill="#08B89D"/>
<path d="M12 9.55713C13.2294 9.55713 14.226 10.5538 14.226 11.7832C14.226 13.0126 13.2294 14.0092 12 14.0092C10.7706 14.0092 9.77393 13.0126 9.77393 11.7832C9.77393 10.5538 10.7706 9.55713 12 9.55713ZM12 10.42C11.2471 10.42 10.6368 11.0303 10.6368 11.7832C10.6368 12.536 11.2471 13.1463 12 13.1463C12.7528 13.1463 13.3631 12.536 13.3631 11.7832C13.3631 11.0303 12.7528 10.42 12 10.42Z" fill="#08B89D"/>
<path d="M12 8.22144C14.1932 8.22144 16.223 8.95683 18.0893 10.4276C18.1961 10.5117 18.2925 10.6082 18.3766 10.7149C18.9469 11.4386 18.8457 12.4767 18.1621 13.078L18.0893 13.1386L17.9082 13.2786C16.0918 14.6561 14.1224 15.3448 12 15.3448C9.80678 15.3448 7.77699 14.6094 5.91061 13.1386C5.80386 13.0545 5.70743 12.958 5.62331 12.8513C5.05303 12.1276 5.15422 11.0895 5.83782 10.4882L5.91061 10.4276L6.09174 10.2876C7.90811 8.91015 9.87752 8.22144 12 8.22144ZM12 9.08433C10.1361 9.08433 8.40572 9.66699 6.79199 10.8421L6.61953 10.9702L6.4447 11.1054C6.07039 11.4003 6.00608 11.9429 6.30105 12.3172C6.34311 12.3706 6.39133 12.4188 6.4447 12.4608C8.16206 13.8142 10.0049 14.4819 12 14.4819C13.8638 14.4819 15.5942 13.8992 17.208 12.7241L17.3804 12.596L17.5553 12.4608C17.9296 12.1659 17.9939 11.6233 17.6989 11.249C17.6568 11.1956 17.6086 11.1474 17.5553 11.1054C15.8379 9.752 13.995 9.08433 12 9.08433Z" fill="#08B89D"/>
</svg>
