<svg width="24" height="24" viewBox="0 0 24 24" fill="none" xmlns="http://www.w3.org/2000/svg">
<g clip-path="url(#clip0_12:860)">
<path d="M15.9402 6C13.702 6 11.8804 7.82123 11.8804 10.0598C11.8804 10.2768 12.0564 10.4529 12.2734 10.4529C12.4903 10.4529 12.6664 10.2768 12.6664 10.0598C12.6664 8.25473 14.1351 6.78604 15.9402 6.78604C17.7453 6.78604 19.214 8.25473 19.214 10.0598C19.214 11.2401 18.7546 11.6889 18.1163 12.3118C17.4215 12.9905 16.5568 13.8347 16.5568 15.6564C16.5568 16.3999 15.952 17.0044 15.2084 17.0044C14.4652 17.0044 13.8604 16.3999 13.8604 15.6564C13.8604 15.439 13.6843 15.2633 13.4673 15.2633C13.2504 15.2633 13.0743 15.439 13.0743 15.6564C13.0743 16.833 14.0317 17.7904 15.2084 17.7904C16.3851 17.7904 17.3428 16.833 17.3428 15.6564C17.3428 14.166 18.0153 13.5093 18.6677 12.8719C19.3228 12.2324 20 11.5718 20 10.0598C20 7.82123 18.1788 6 15.9402 6Z" fill="#08B89D"/>
<path d="M16.1301 11.9828C16.0133 11.5257 15.7256 11.1421 15.3209 10.9024C14.9919 10.7067 14.6166 10.625 14.2361 10.6643C14.0204 10.6867 13.8636 10.8804 13.8864 11.0962C13.9088 11.312 14.0982 11.4664 14.3183 11.446C14.5289 11.4243 14.7368 11.4695 14.9196 11.5784C15.1444 11.7112 15.3036 11.9239 15.3684 12.1774C15.4336 12.4312 15.3955 12.695 15.2619 12.9198C15.1283 13.1453 14.9153 13.3045 14.6618 13.3694C14.4083 13.4338 14.1449 13.3961 13.9198 13.2625C13.7331 13.152 13.4917 13.2133 13.3813 13.4C13.2709 13.5867 13.3322 13.828 13.5189 13.9388C13.7952 14.1027 14.1037 14.1868 14.4169 14.1868C14.5635 14.1868 14.7109 14.1683 14.8559 14.131C15.313 14.0143 15.6969 13.7266 15.9375 13.3214C16.1788 12.9154 16.2468 12.4403 16.1301 11.9828Z" fill="#08B89D"/>
<path d="M16.1458 7.83301C14.8815 7.83301 13.8529 8.86193 13.8529 10.1262C13.8529 10.3432 14.029 10.5193 14.246 10.5193C14.4629 10.5193 14.639 10.3432 14.639 10.1262C14.639 9.29502 15.315 8.61903 16.1458 8.61903C16.9762 8.61903 17.6522 9.29502 17.6522 10.1262C17.6522 10.3432 17.8279 10.5193 18.0453 10.5193C18.2626 10.5193 18.4383 10.3432 18.4383 10.1262C18.4382 8.86191 17.4097 7.83301 16.1458 7.83301Z" fill="#08B89D"/>
<path d="M14.6319 9.96907C14.6244 9.75212 14.4448 9.58275 14.2259 9.58942C14.0089 9.59689 13.8388 9.77846 13.8462 9.99541L13.8812 11.0408C13.8883 11.2534 14.0628 11.4209 14.2739 11.4209C14.2782 11.4209 14.2825 11.4209 14.2872 11.4205C14.5042 11.413 14.6743 11.2314 14.6669 11.0145L14.6319 9.96907Z" fill="#08B89D"/>
<path d="M6.85039 6.78638L6.89629 6.78735C7.11267 6.80445 7.27422 6.99371 7.25713 7.2101L7.20727 7.82185L7.13947 8.59275L7.10492 8.95917L7.05219 9.48522L6.98 10.143L6.94302 10.4533L6.88635 10.8959L6.84772 11.1757L6.80837 11.4435L6.76826 11.6992L6.72736 11.943L6.68564 12.1749L6.64305 12.3951L6.59957 12.6035L6.55516 12.8003L6.50978 12.9855C6.50214 13.0154 6.49445 13.0448 6.48672 13.0738L6.43983 13.2418C6.43193 13.2688 6.42398 13.2954 6.41599 13.3215L6.36751 13.4724C6.35934 13.4966 6.35112 13.5204 6.34286 13.5436L6.29271 13.6777L6.2414 13.8005C6.12896 14.0546 6.00814 14.2305 5.87733 14.3316L5.84697 14.3536C4.98937 14.9338 4.55363 15.777 4.93093 16.5471C5.20277 17.102 5.60242 17.246 6.27826 16.9961L6.35748 16.9655L6.63491 16.854L6.81636 17.0916C7.12712 17.4986 7.59015 17.7021 8.24433 17.7021C8.46139 17.7021 8.63735 17.878 8.63735 18.0951C8.63735 18.3122 8.46139 18.4881 8.24433 18.4881C7.47795 18.4881 6.85344 18.2595 6.39583 17.8023L6.38286 17.789L6.35936 17.7965C5.43987 18.0674 4.70554 17.7905 4.26914 16.9788L4.22506 16.8929C3.63597 15.6905 4.26373 14.4757 5.4065 13.7025C5.43828 13.681 5.47663 13.6216 5.51931 13.5262L5.55691 13.4357C5.56333 13.4192 5.56983 13.402 5.5764 13.384L5.6166 13.2676L5.65813 13.1344L5.7007 12.9846L5.74399 12.8185L5.78769 12.6363L5.83148 12.4385L5.87506 12.2251L5.9181 11.9966L5.94153 11.8645L5.98788 11.5871L6.03359 11.2924L6.07864 10.9802L6.12303 10.6506L6.16677 10.3037L6.20985 9.93935L6.27322 9.36028L6.31463 8.95254L6.35537 8.52745L6.39544 8.08502L6.43483 7.62526L6.47354 7.14819C6.48942 6.94727 6.65375 6.79362 6.85039 6.78638Z" fill="#08B89D"/>
<path d="M9.21614 6.78723C8.99976 6.80432 8.8382 6.99359 8.8553 7.20997L8.92195 8.01923L8.97296 8.59263L9.00751 8.95905L9.06024 9.4851L9.09605 9.82019L9.15084 10.2996L9.20702 10.7513L9.2453 11.0372L9.28429 11.311L9.32401 11.5727L9.38506 11.9429L9.42679 12.1748L9.46938 12.395L9.51286 12.6034L9.55727 12.8002L9.60265 12.9854L9.64902 13.1591C9.65684 13.1871 9.66469 13.2146 9.6726 13.2417L9.72054 13.3982C9.7367 13.4486 9.75304 13.497 9.76957 13.5435L9.81972 13.6775L9.87102 13.8004C9.98346 14.0545 10.1043 14.2304 10.2351 14.3315L10.2655 14.3534C11.1231 14.9337 11.5588 15.7769 11.1815 16.547C10.9097 17.1019 10.51 17.2459 9.83416 16.9959L9.75495 16.9654L9.47752 16.8539L9.29606 17.0915C8.98531 17.4984 8.52228 17.702 7.86809 17.702C7.65104 17.702 7.47508 17.8779 7.47508 18.095C7.47508 18.312 7.65104 18.488 7.86809 18.488C8.63448 18.488 9.25899 18.2594 9.71659 17.8022L9.72961 17.7888L9.75306 17.7964C10.6726 18.0673 11.4069 17.7904 11.8433 16.9787L11.8874 16.8928C12.4765 15.6904 11.8487 14.4756 10.7059 13.7024C10.6787 13.684 10.6466 13.6377 10.6111 13.5648L10.5746 13.483L10.536 13.3839L10.4958 13.2675L10.4543 13.1343L10.4117 12.9845L10.3684 12.8184C10.3612 12.7893 10.3539 12.7596 10.3466 12.7293L10.3028 12.5392C10.2955 12.5062 10.2882 12.4726 10.2809 12.4383L10.2374 12.225L10.1943 11.9965L10.1709 11.8643L10.1245 11.587L10.0788 11.2922L10.0338 10.9801L9.98939 10.6505L9.94566 10.3036L9.88129 9.75055L9.83921 9.36016L9.7978 8.95242L9.75706 8.52733L9.71699 8.0849L9.6776 7.62514L9.63888 7.14807C9.62301 6.94714 9.45868 6.79349 9.26204 6.78625L9.21614 6.78723Z" fill="#08B89D"/>
</g>
<defs>
<clipPath id="clip0_12:860">
<rect width="16" height="16" fill="white" transform="translate(4 4)"/>
</clipPath>
</defs>
</svg>
