<svg width="24" height="24" viewBox="0 0 24 24" fill="none" xmlns="http://www.w3.org/2000/svg">
<g clip-path="url(#clip0_15:240)">
<path d="M17.1951 17.4437C17.713 16.6045 18 15.6588 18 14.6667C18 12.3557 16.5417 10.351 14.3633 9.62037C14.0702 9.14687 13.589 8.805 13.0214 8.70256L13.3333 8.07881C13.4156 7.91409 13.3489 7.71391 13.1842 7.63156L13.4824 7.03522C13.6471 7.11694 13.8466 7.05085 13.9297 6.88613L14.6315 5.48247C14.7138 5.31776 14.6471 5.11757 14.4824 5.03519L12.4824 4.0352C12.3174 3.95316 12.1178 4.01926 12.0351 4.18429L11.3333 5.58794C11.251 5.75266 11.3177 5.95285 11.4824 6.03522L11.1842 6.63157C11.0198 6.54985 10.8193 6.61594 10.7369 6.78066L8.03512 12.1843C7.95278 12.349 8.0195 12.5492 8.18421 12.6316L10.1842 13.6316C10.2321 13.6553 10.2828 13.6667 10.333 13.6667C10.4554 13.6667 10.5729 13.5994 10.6315 13.4825L11.3093 12.1268C11.6666 12.4591 12.1414 12.6667 12.6666 12.6667C13.1042 12.6667 13.5061 12.5214 13.8357 12.2821C14.7488 12.7287 15.3333 13.6412 15.3333 14.6667C15.3333 16.1371 14.137 17.3334 12.6666 17.3334H9.99996V16.6667H11C11.1842 16.6667 11.3333 16.5176 11.3333 16.3334C11.3333 16.1491 11.1842 16 11 16H9.66662H7.66662H6.33334C6.14909 16 6 16.1491 6 16.3334C6 16.5176 6.14909 16.6667 6.33334 16.6667H7.33334V17.3334C6.598 17.3334 6 17.9314 6 18.6667V19.6667C6 19.851 6.14909 20.0001 6.33334 20.0001H17.6667C17.8509 20.0001 18 19.851 18 19.6667V18.6667C18 18.1192 17.668 17.6488 17.1951 17.4437ZM10.6667 10.6667C10.6667 10.9739 10.742 11.2617 10.8663 11.5221L10.1843 12.8861L8.78062 12.1843L11.1843 7.37703C11.3493 7.45875 11.5489 7.39266 11.6316 7.22794L12.2279 6.03522C12.3102 5.8705 12.2435 5.67032 12.0788 5.58794L12.4825 4.78066L13.8861 5.48247L13.4825 6.28975C13.3177 6.20838 13.1175 6.27413 13.0352 6.43885L12.4388 7.63156C12.3565 7.79628 12.4232 7.99647 12.5879 8.07881L12.2741 8.70637C11.3587 8.8894 10.6667 9.69828 10.6667 10.6667ZM12.6667 12C11.9313 12 11.3333 11.4021 11.3333 10.6667C11.3333 9.93131 11.9313 9.33334 12.6667 9.33334C13.402 9.33334 14 9.93131 14 10.6667C14 11.4021 13.402 12 12.6667 12ZM16 14.6667C16 13.4583 15.3544 12.3713 14.3255 11.7826C14.5408 11.4636 14.6667 11.0796 14.6667 10.6667C14.6667 10.5912 14.6526 10.5194 14.6444 10.446C16.2738 11.2041 17.3334 12.824 17.3334 14.6667C17.3334 15.6284 17.0323 16.5442 16.478 17.3334H14.6461C15.4629 16.7252 16 15.7609 16 14.6667ZM8.00003 16.6667H9.33337V17.3334H8.00003V16.6667ZM17.3333 19.3334H6.66669V18.6667C6.66669 18.2992 6.96584 18 7.33334 18H7.66668H9.66668H16.6667C17.0342 18 17.3333 18.2992 17.3333 18.6667V19.3334V19.3334Z" fill="#08B89D"/>
</g>
<defs>
<clipPath id="clip0_15:240">
<rect width="16" height="16" fill="white" transform="translate(4 4)"/>
</clipPath>
</defs>
</svg>
