<svg width="24" height="24" viewBox="0 0 24 24" fill="none" xmlns="http://www.w3.org/2000/svg">
<g clip-path="url(#clip0_12:836)">
<path d="M11.6017 4C14.1264 4 16.1731 6.0467 16.1731 8.57143C16.1731 11.0962 14.1264 13.1429 11.6017 13.1429C9.07697 13.1429 7.03027 11.0962 7.03027 8.57143C7.03027 6.0467 9.07697 4 11.6017 4ZM11.6017 4.7619C9.49776 4.7619 7.79218 6.46749 7.79218 8.57143C7.79218 10.6754 9.49776 12.381 11.6017 12.381C13.7056 12.381 15.4112 10.6754 15.4112 8.57143C15.4112 6.46749 13.7056 4.7619 11.6017 4.7619Z" fill="#08B89D"/>
<path d="M13.8874 8.19055C14.0978 8.19055 14.2684 8.36111 14.2684 8.5715C14.2684 10.0443 13.0745 11.2382 11.6017 11.2382C10.1289 11.2382 8.93503 10.0443 8.93503 8.5715C8.93503 8.36111 9.10559 8.19055 9.31598 8.19055C9.52637 8.19055 9.69693 8.36111 9.69693 8.5715C9.69693 9.62347 10.5497 10.4763 11.6017 10.4763C12.6537 10.4763 13.5065 9.62347 13.5065 8.5715C13.5065 8.36111 13.677 8.19055 13.8874 8.19055Z" fill="#08B89D"/>
<path d="M10.9351 12.3817L12.1392 12.381C13.064 12.381 13.5282 12.4842 13.9327 12.679L14.047 12.7372C14.2396 12.8402 14.4139 12.9645 14.5684 13.1089L14.6289 13.1666L16.8742 15.4518C17.2963 15.8813 17.3103 16.5603 16.9183 17.0064L16.8601 17.068C16.4629 17.4652 15.846 17.5089 15.4005 17.199C15.366 17.8966 15.248 18.2751 15.055 18.6358C14.8226 19.0704 14.4816 19.4114 14.047 19.6439L13.9327 19.702C13.5282 19.8969 13.064 20 12.1392 20H11.0642C10.1394 20 9.67519 19.8969 9.27068 19.702L9.15638 19.6439C8.72181 19.4114 8.38076 19.0704 8.14835 18.6358C7.95533 18.2749 7.83724 17.8962 7.80276 17.1979C7.37757 17.4948 6.7953 17.4688 6.39737 17.12L6.33474 17.0609C5.90894 16.6351 5.88899 15.9562 6.27703 15.5067L6.32766 15.4518L8.57302 13.1666L8.61241 13.1283L8.65322 13.0923C8.80314 12.9549 8.97127 12.8362 9.15638 12.7372L9.27068 12.679C9.65592 12.4934 10.0953 12.391 10.9351 12.3817ZM6.89962 16.5471C7.01744 16.6504 7.18685 16.6689 7.32266 16.5996L7.36656 16.5732L8.49581 15.7847L8.56374 17.1604C8.59033 17.6988 8.66252 17.9817 8.82021 18.2765C8.98161 18.5783 9.2139 18.8106 9.51569 18.972C9.81978 19.1346 10.1321 19.2131 10.7235 19.2329L10.9443 19.2376L11.0642 19.2381H12.1392L12.2591 19.2376L12.4799 19.2329C13.0713 19.2131 13.3836 19.1346 13.6877 18.972C13.9895 18.8106 14.2218 18.5783 14.3832 18.2765C14.5303 18.0015 14.6029 17.737 14.6336 17.2657L14.7072 15.789L15.8355 16.5735C15.9712 16.6679 16.1536 16.6622 16.2839 16.5621L16.3214 16.5292L16.3284 16.5221C16.4649 16.3857 16.4763 16.1712 16.362 16.0217L16.3308 15.9858L14.0656 13.6815L14.0483 13.6656C13.9422 13.5666 13.8221 13.4809 13.6877 13.409C13.3836 13.2464 13.0713 13.1679 12.4799 13.1481L12.2591 13.1435H10.9443L10.7235 13.1481C10.1321 13.1679 9.81978 13.2464 9.51569 13.409C9.41233 13.4643 9.31755 13.5277 9.2187 13.61L9.12981 13.6876L6.88801 15.968L6.85375 16.0046C6.73517 16.142 6.73191 16.3437 6.84096 16.4851L6.87348 16.5221L6.89962 16.5471Z" fill="#08B89D"/>
</g>
<defs>
<clipPath id="clip0_12:836">
<rect width="16" height="16" fill="white" transform="translate(4 4)"/>
</clipPath>
</defs>
</svg>
