<svg width="24" height="24" viewBox="0 0 24 24" fill="none" xmlns="http://www.w3.org/2000/svg">
<path d="M16.4445 11.217L14.6068 10.2623C14.3958 10.1527 14.2646 9.93687 14.2646 9.69906V9.30078H14.5186C15.0086 9.30078 15.4072 8.90212 15.4072 8.41211V6.88867C15.4072 6.39866 15.0086 6 14.5186 6H8.67871C8.1887 6 7.79004 6.39866 7.79004 6.88867V8.41211C7.79004 8.90212 8.1887 9.30078 8.67871 9.30078H8.93262V9.69906C8.93262 9.93687 8.8015 10.1527 8.59045 10.2623L6.7527 11.217C6.28841 11.4582 6 11.9331 6 12.4563V17.6035C6 18.3735 6.62646 19 7.39648 19H15.8008C16.5708 19 17.1973 18.3735 17.1973 17.6035V12.4563C17.1973 11.9331 16.9089 11.4582 16.4445 11.217V11.217ZM8.55176 8.41211V6.88867C8.55176 6.81867 8.60871 6.76172 8.67871 6.76172H14.5186C14.5886 6.76172 14.6455 6.81867 14.6455 6.88867V8.41211C14.6455 8.48211 14.5886 8.53906 14.5186 8.53906H13.8838H13.5029V8.05664C13.5029 7.8463 13.3324 7.67578 13.1221 7.67578C12.9117 7.67578 12.7412 7.8463 12.7412 8.05664V8.53906H11.9795V8.05664C11.9795 7.8463 11.809 7.67578 11.5986 7.67578C11.3883 7.67578 11.2178 7.8463 11.2178 8.05664V8.53906H10.4561V8.05664C10.4561 7.8463 10.2855 7.67578 10.0752 7.67578C9.86486 7.67578 9.69434 7.8463 9.69434 8.05664V8.53906H9.31348H8.67871C8.60871 8.53906 8.55176 8.48211 8.55176 8.41211ZM16.4355 17.6035C16.4355 17.9535 16.1508 18.2383 15.8008 18.2383H7.39648C7.04647 18.2383 6.76172 17.9535 6.76172 17.6035V12.4563C6.76172 12.2184 6.89284 12.0026 7.10388 11.893L8.94163 10.9383C9.40592 10.6971 9.69434 10.2223 9.69434 9.69906V9.30078H13.5029V9.69906C13.5029 10.2223 13.7913 10.6971 14.2557 10.9383L16.0934 11.893C16.3045 12.0026 16.4356 12.2185 16.4356 12.4563V17.6035H16.4355Z" fill="#08B89D"/>
<path d="M13.2738 13.7381H12.3452V12.8095C12.3452 12.6386 12.2067 12.5 12.0357 12.5H10.7976C10.6267 12.5 10.4881 12.6386 10.4881 12.8095V13.7381H9.55952C9.38858 13.7381 9.25 13.8767 9.25 14.0476V15.2857C9.25 15.4567 9.38858 15.5952 9.55952 15.5952H10.4881V16.5238C10.4881 16.6947 10.6267 16.8333 10.7976 16.8333H12.0357C12.2067 16.8333 12.3452 16.6947 12.3452 16.5238V15.5952H13.2738C13.4447 15.5952 13.5833 15.4567 13.5833 15.2857V14.0476C13.5833 13.8767 13.4447 13.7381 13.2738 13.7381ZM12.9643 14.9762H12.0357C11.8648 14.9762 11.7262 15.1148 11.7262 15.2857V16.2143H11.1071V15.2857C11.1071 15.1148 10.9686 14.9762 10.7976 14.9762H9.86905V14.3571H10.7976C10.9686 14.3571 11.1071 14.2186 11.1071 14.0476V13.119H11.7262V14.0476C11.7262 14.2186 11.8648 14.3571 12.0357 14.3571H12.9643V14.9762Z" fill="#08B89D"/>
</svg>
