<svg width="24" height="24" viewBox="0 0 24 24" fill="none" xmlns="http://www.w3.org/2000/svg">
<g clip-path="url(#clip0_16:250)">
<path d="M18.4816 17.5818L16.7434 16.2516L17.2211 14.3399C17.3098 13.9854 17.1827 13.6088 16.8973 13.3804L14.9279 11.805C14.9786 11.5683 15.0447 11.3208 15.1283 11.054C15.2349 10.7143 15.3134 10.3632 15.3619 10.0104C15.4305 9.72328 15.422 9.54094 15.422 9.13688V6.8125C15.422 6.29556 15.0015 5.875 14.4845 5.875C14.3625 5.875 14.246 5.89869 14.139 5.94128C14.0306 5.54344 13.6663 5.25 13.2345 5.25C13.0674 5.25 12.9105 5.29416 12.7745 5.37112C12.6078 5.11066 12.3161 4.9375 11.9845 4.9375C11.8174 4.9375 11.6605 4.98166 11.5245 5.05862C11.3578 4.79816 11.0661 4.625 10.7345 4.625C10.5554 4.625 10.3879 4.67556 10.2455 4.76303C10.027 4.30647 9.62769 4 9.17204 4C8.48279 4 7.92204 4.70094 7.92204 5.5625C7.92204 5.89084 8.00147 6.20447 8.15172 6.46937C8.37429 6.86216 8.5366 7.53253 8.54647 8.09941C8.55225 8.43663 8.57544 8.74741 8.6165 9.04419L7.10219 10.2556C6.81735 10.4839 6.69025 10.8604 6.7786 11.2149L7.25297 13.1122L5.53497 14.2575C5.46319 14.3053 5.41441 14.3807 5.40013 14.4657C5.38585 14.5508 5.40735 14.638 5.45957 14.7067L7.44113 17.3123C7.49897 17.3883 7.58841 17.4337 7.68391 17.4356C7.68591 17.4356 7.68791 17.4356 7.68988 17.4356C7.78319 17.4356 7.87179 17.3939 7.93122 17.3217L9.24866 15.7202C9.1891 15.9693 9.16416 16.226 9.17432 16.4874C9.18085 16.6557 9.31938 16.7878 9.48635 16.7878C9.49044 16.7878 9.49457 16.7877 9.49872 16.7875C9.67119 16.7808 9.80554 16.6356 9.79885 16.4631C9.78663 16.1488 9.83938 15.8437 9.95557 15.5561C10.1149 15.1617 10.2296 14.8014 10.3067 14.4548C10.7733 13.7516 11.028 12.9383 11.046 12.0962L12.2446 10.2984C12.2906 10.2294 12.3073 10.145 12.291 10.0637C12.2747 9.98244 12.2268 9.91094 12.1579 9.865C11.4412 9.38734 10.4692 9.58163 9.99107 10.2983L9.77197 10.6271C9.74725 10.5763 9.72185 10.5259 9.69585 10.4759C9.4881 10.0762 9.34572 9.63416 9.26057 9.1245C9.207 8.8035 9.17785 8.46469 9.17138 8.08866C9.16238 7.57106 9.03235 6.75578 8.69544 6.16119C8.59838 5.99 8.54707 5.78297 8.54707 5.56253C8.54707 5.05434 8.83329 4.62503 9.17207 4.62503C9.51085 4.62503 9.79707 5.05434 9.79707 5.56253V7.00003C9.79707 7.17259 9.937 7.31253 10.1096 7.31253C10.2821 7.31253 10.4221 7.17259 10.4221 7.00003V5.5625C10.4221 5.39019 10.5623 5.25 10.7346 5.25C10.9069 5.25 11.0471 5.39019 11.0471 5.5625V7C11.0471 7.17256 11.187 7.3125 11.3596 7.3125C11.5321 7.3125 11.6721 7.17256 11.6721 7C11.6721 6.65834 11.6721 6.20734 11.6721 5.875C11.6721 5.70269 11.8123 5.5625 11.9846 5.5625C12.1569 5.5625 12.2971 5.70269 12.2971 5.875V7.3125C12.2971 7.48506 12.437 7.625 12.6096 7.625C12.7821 7.625 12.9221 7.48506 12.9221 7.3125V6.1875C12.9221 6.01519 13.0623 5.875 13.2346 5.875C13.4069 5.875 13.5471 6.01519 13.5471 6.1875V7.625C13.5471 7.79756 13.687 7.9375 13.8596 7.9375C14.0321 7.9375 14.1721 7.79756 14.1721 7.625V6.8125C14.1721 6.64019 14.3123 6.5 14.4846 6.5C14.6569 6.5 14.7971 6.64019 14.7971 6.8125V9.13688C14.7971 9.38875 14.78 9.643 14.7469 9.89322C14.5684 10.5825 13.949 11.0625 13.2345 11.0625C13.062 11.0625 12.922 11.2024 12.922 11.375C12.922 11.5476 13.062 11.6875 13.2345 11.6875C13.6559 11.6875 14.0535 11.5678 14.3915 11.3576C14.3523 11.5101 14.3187 11.658 14.2904 11.8029C14.2722 11.8454 14.2641 11.8908 14.2657 11.9358C14.2035 12.288 14.172 12.6321 14.172 12.9594V13.6683L14.0086 13.4233C13.5298 12.7048 12.5608 12.511 11.8422 12.99C11.7732 13.036 11.7253 13.1075 11.709 13.1887C11.6928 13.27 11.7095 13.3544 11.7554 13.4234L12.954 15.2211C12.9821 16.5804 13.5994 17.437 13.7289 17.602C13.7386 17.6146 13.7493 17.6265 13.7608 17.6375L13.7669 17.6433C13.2546 18.3627 12.3558 18.7063 11.4656 18.5031C11.3529 18.4774 11.2421 18.4429 11.1362 18.4004C10.976 18.3362 10.7941 18.4139 10.7298 18.5741C10.6656 18.7343 10.7433 18.9163 10.9035 18.9805C11.0398 19.0351 11.1821 19.0796 11.3266 19.1125C12.4302 19.3642 13.5535 18.9584 14.2227 18.0787L16.1437 19.9135C16.2646 20.029 16.4552 20.029 16.5761 19.9128L18.5083 18.0553C18.574 17.9922 18.6089 17.9035 18.6038 17.8125C18.5986 17.7214 18.554 17.6372 18.4816 17.5818V17.5818ZM8.7515 9.73653C8.84704 10.1066 8.97588 10.446 9.14129 10.7641C9.2465 10.9666 9.3406 11.1769 9.421 11.3893C9.46244 11.4989 9.56166 11.5761 9.67807 11.5893C9.79432 11.6025 9.90841 11.5495 9.97335 11.452L10.5111 10.6449C10.7371 10.3061 11.1472 10.1617 11.5214 10.2562L10.4745 11.8266C10.4403 11.878 10.422 11.9382 10.422 12C10.422 12.7261 10.2169 13.4298 9.82854 14.0425C9.77794 14.0828 9.91 13.9366 7.69944 16.6195L6.15832 14.593L7.78285 13.51C7.89275 13.4368 7.94472 13.3023 7.91266 13.1742L7.38491 11.0635C7.35547 10.9452 7.39791 10.8195 7.49282 10.7434L8.7515 9.73653ZM16.3588 19.2547L14.2096 17.2019C14.1071 17.0666 13.578 16.3109 13.578 15.125C13.578 15.0633 13.5597 15.003 13.5255 14.9517L12.4783 13.3808C12.8448 13.2876 13.258 13.424 13.4886 13.7699L14.2245 14.8737C14.3009 14.9882 14.4433 15.0393 14.5751 14.9994C14.7069 14.9595 14.797 14.838 14.797 14.7003V12.9594C14.797 12.8157 14.8039 12.668 14.8176 12.5172L16.5068 13.8684C16.602 13.9446 16.6444 14.0701 16.6148 14.1883L16.0873 16.2992C16.0571 16.4201 16.1016 16.5474 16.2006 16.6232L17.8128 17.8569L16.3588 19.2547Z" fill="#08B89D"/>
<path d="M14.1195 9.04834C14.2153 8.90475 14.1765 8.71072 14.0329 8.615C13.9914 8.58731 13.0049 7.9375 11.9845 7.9375C10.9642 7.9375 9.97769 8.58731 9.93619 8.615C9.79256 8.71072 9.75378 8.90475 9.84953 9.04834C9.94525 9.19197 10.1393 9.23075 10.2829 9.135C10.2915 9.12928 11.1513 8.5625 11.9845 8.5625C12.8131 8.5625 13.6779 9.12953 13.6862 9.135C13.8292 9.23034 14.0234 9.19259 14.1195 9.04834Z" fill="#08B89D"/>
</g>
<defs>
<clipPath id="clip0_16:250">
<rect width="16" height="16" fill="white" transform="translate(4 4)"/>
</clipPath>
</defs>
</svg>
