<svg width="24" height="24" viewBox="0 0 24 24" fill="none" xmlns="http://www.w3.org/2000/svg">
<path d="M12.2224 14.691L11.994 14.5192C11.8018 14.3747 11.5576 14.3352 11.3358 14.4047C11.1141 14.3353 10.8698 14.3747 10.6775 14.5192L10.4492 14.691C10.3787 14.7441 10.3338 14.8245 10.3258 14.9124C10.3178 15.0003 10.3474 15.0875 10.4072 15.1525L10.4939 15.2466C10.71 15.4812 11.0168 15.6157 11.3358 15.6157C11.6547 15.6157 11.9616 15.4812 12.1777 15.2466L12.2643 15.1525C12.3241 15.0875 12.3537 15.0003 12.3457 14.9124C12.3377 14.8245 12.293 14.7441 12.2224 14.691V14.691Z" fill="#08B89D"/>
<path d="M9.21341 12.7622C9.21335 12.7622 9.21326 12.7622 9.21319 12.7622C9.14157 12.7624 9.07082 12.7581 9.0006 12.7499C8.82932 12.7296 8.67388 12.8522 8.65366 13.0237C8.63348 13.1951 8.75607 13.3504 8.92748 13.3706C9.02144 13.3816 9.11707 13.3873 9.21188 13.3873H9.21366C9.38622 13.3871 9.52604 13.2471 9.52591 13.0746C9.52579 12.902 9.38588 12.7622 9.21341 12.7622V12.7622Z" fill="#08B89D"/>
<path d="M10.7095 12.8687C10.7841 12.8099 10.8561 12.7458 10.9237 12.6783C11.0457 12.5562 11.0457 12.3584 10.9237 12.2363C10.8017 12.1143 10.6038 12.1143 10.4818 12.2363C10.4315 12.2866 10.3778 12.3343 10.3223 12.3781C10.1868 12.485 10.1636 12.6815 10.2706 12.817C10.3322 12.8952 10.4237 12.9359 10.5161 12.9359C10.5839 12.9359 10.6521 12.914 10.7095 12.8687Z" fill="#08B89D"/>
<path d="M11.3312 9.47369C11.5037 9.47369 11.6437 9.33379 11.6437 9.16119V8.9165C11.6437 8.74391 11.5037 8.604 11.3312 8.604C11.1586 8.604 11.0187 8.74391 11.0187 8.9165V9.16119C11.0187 9.33379 11.1586 9.47369 11.3312 9.47369Z" fill="#08B89D"/>
<path d="M11.3312 11.1613C11.5037 11.1613 11.6437 11.0213 11.6437 10.8488V10.5363C11.6437 10.3637 11.5037 10.2238 11.3312 10.2238C11.1586 10.2238 11.0187 10.3637 11.0187 10.5363V10.8488C11.0187 11.0213 11.1586 11.1613 11.3312 11.1613Z" fill="#08B89D"/>
<path d="M19.2396 17.3791L15.9627 14.1023C17.2573 12.9975 17.9933 11.4746 17.9933 9.87708C17.9933 8.52732 17.4623 7.20921 16.4979 6.16553C15.5557 5.14576 14.2393 4.42693 12.7914 4.14143C12.6221 4.10803 12.4577 4.21824 12.4243 4.38755C12.3909 4.55687 12.5012 4.72121 12.6705 4.75461C15.3926 5.29136 17.3684 7.44564 17.3684 9.87705C17.3684 11.1252 16.8555 12.3254 15.9396 13.268C15.9654 13.0572 15.9792 12.8446 15.9792 12.631V10.8782C15.9792 10.649 15.9549 10.4242 15.9085 10.2066C16.1815 9.89252 16.3839 9.51796 16.4972 9.11437C16.5438 8.94822 16.4469 8.77569 16.2807 8.72907C16.1144 8.68229 15.942 8.77935 15.8954 8.9455C15.8419 9.13616 15.7628 9.31831 15.6617 9.48678C15.367 8.8785 14.8798 8.37151 14.2524 8.05232C14.2204 8.03607 14.1881 8.02079 14.156 8.00511C14.3563 7.6412 14.4611 7.23443 14.4611 6.80981C14.4611 6.63722 14.3212 6.49731 14.1486 6.49731C13.9761 6.49731 13.8361 6.63722 13.8361 6.80981C13.8361 7.14843 13.7475 7.47189 13.5781 7.7573C12.1319 7.22068 10.5305 7.22071 9.08433 7.7573C8.91486 7.47186 8.82621 7.14843 8.82621 6.80981C8.82621 6.63722 8.68627 6.49731 8.51371 6.49731C8.34115 6.49731 8.20121 6.63722 8.20121 6.80981C8.20121 7.23443 8.30603 7.6412 8.50637 8.00511C8.47421 8.02079 8.44193 8.03607 8.40999 8.05232C7.78256 8.37151 7.29532 8.8785 7.00067 9.48678C6.89954 9.31831 6.82042 9.13616 6.76692 8.9455C6.72029 8.77935 6.5477 8.68241 6.38164 8.72907C6.21546 8.77569 6.11855 8.94819 6.16518 9.11437C6.27842 9.51796 6.48086 9.89252 6.75383 10.2066C6.70745 10.4242 6.6832 10.649 6.6832 10.8782V12.631C6.6832 12.8465 6.69658 13.0591 6.72214 13.2681C5.80581 12.3261 5.29397 11.1283 5.29397 9.87702C5.29397 7.44555 7.26979 5.29126 9.99197 4.75455C10.1613 4.72118 10.2715 4.55683 10.2381 4.38749C10.2047 4.21818 10.0406 4.10787 9.87107 4.14137C8.42312 4.42684 7.10676 5.14567 6.16446 6.16544C5.20009 7.20908 4.66901 8.52722 4.66901 9.87699C4.66901 11.5834 5.50368 13.1955 6.96148 14.3135C7.36269 15.4899 8.17371 16.4828 9.23458 17.1127V17.3038C9.23458 18.2664 8.61674 19.1043 7.6971 19.3888C7.53225 19.4398 7.43994 19.6148 7.49091 19.7797C7.53241 19.9138 7.65594 19.9999 7.78938 19.9999C7.81997 19.9999 7.85109 19.9954 7.88184 19.9859C8.45881 19.8074 8.95324 19.4561 9.31167 18.97C9.64554 18.5173 9.8326 17.9864 9.85673 17.4277C10.3059 17.6183 10.7885 17.7486 11.2953 17.8072C11.3072 17.8086 11.3192 17.8092 11.3312 17.8092C11.3432 17.8092 11.3552 17.8086 11.3671 17.8072C11.8699 17.749 12.357 17.6179 12.8146 17.4222C12.8377 17.9829 13.025 18.5158 13.3599 18.97C13.7184 19.4561 14.2128 19.8074 14.7898 19.9859C14.8205 19.9954 14.8516 19.9999 14.8822 19.9999C15.0156 19.9999 15.1392 19.9138 15.1807 19.7797C15.2317 19.6148 15.1394 19.4398 14.9745 19.3888C14.0549 19.1043 13.4371 18.2664 13.4371 17.3038V17.1049C13.9496 16.7992 14.4098 16.4056 14.794 15.9386L17.7369 18.8816C17.7956 18.9402 17.875 18.9731 17.9579 18.9731C18.0408 18.9731 18.1203 18.9402 18.1789 18.8816L19.2395 17.8209C19.3616 17.699 19.3616 17.5011 19.2396 17.3791V17.3791ZM13.9317 14.029L13.4481 13.0902L14.3869 13.5738L13.9317 14.029ZM11.6437 17.132V16.6404C11.6437 16.4678 11.5037 16.3279 11.3312 16.3279C11.1586 16.3279 11.0187 16.4678 11.0187 16.6404V17.1326C8.88024 16.7186 7.30819 14.842 7.30819 12.6311V10.8782C7.30819 9.91343 7.83894 9.04409 8.69336 8.60947C10.345 7.76933 12.3173 7.76927 13.969 8.60947C14.8234 9.04409 15.3541 9.91343 15.3541 10.8782V12.6311C15.3541 12.8982 15.3307 13.1636 15.2851 13.4246L15.1316 13.2711C15.1087 13.2483 15.0824 13.2291 15.0537 13.2143L12.8661 12.0873C12.7453 12.0251 12.5982 12.0481 12.502 12.1442C12.4059 12.2402 12.383 12.3874 12.4452 12.5082L13.5722 14.6958C13.587 14.7245 13.6062 14.7508 13.629 14.7737L14.35 15.4947C13.6704 16.3434 12.7081 16.9245 11.6437 17.132V17.132ZM17.9579 18.2188L14.2919 14.5527L14.9106 13.934L18.5766 17.6001L17.9579 18.2188Z" fill="#08B89D"/>
</svg>
