<svg width="24" height="24" viewBox="0 0 24 24" fill="none" xmlns="http://www.w3.org/2000/svg">
<path fill="#08B89D" d="M12.2725 6.16673L12.368 6.25896L12.4156 6.30801L12.4246 6.29937C12.7803 5.95054 13.2425 5.73491 13.7418 5.68645L13.8494 5.67864L13.9579 5.67602C14.1399 5.67602 14.3197 5.6983 14.4937 5.74191L14.6231 5.7786L14.7192 5.81201L14.7841 5.75375C15.1252 5.46121 15.5479 5.28034 15.9952 5.23586L16.1075 5.2276L16.2126 5.22509C17.2293 5.22509 18.1013 5.92436 18.3417 6.88746L18.3632 6.98561L18.3822 6.99664C19.1751 7.4793 19.6822 8.30926 19.7518 9.23041L19.7581 9.34137L19.7601 9.44896C19.7601 10.2206 19.4573 10.9443 18.9173 11.4812L18.8276 11.566L18.8455 11.694L18.855 11.8114L18.8582 11.9291C18.8582 12.7946 18.3516 13.5685 17.5833 13.9224L17.4969 13.9599L17.4164 13.9904C17.1616 14.9864 16.3909 15.7697 15.4126 16.0456L15.307 16.0732L15.2484 16.086L15.2482 16.0971C15.2284 16.5316 15.0909 16.9546 14.853 17.3169L14.7857 17.4141L14.7191 17.5011C14.3816 17.9217 13.9085 18.2208 13.3858 18.3436C13.3563 18.3505 13.3263 18.3539 13.2963 18.3539C13.1161 18.3539 12.9577 18.23 12.9159 18.0523C12.8666 17.8422 12.9969 17.6318 13.2071 17.5824C13.8696 17.4267 14.3536 16.8891 14.4509 16.2323L14.4608 16.1472L14.3738 16.1412L14.2448 16.1267C14.0308 16.0977 13.8809 15.9006 13.91 15.6867C13.939 15.4726 14.1361 15.3225 14.35 15.352C14.4435 15.3646 14.5392 15.3711 14.6343 15.3711C15.7861 15.3711 16.7235 14.4337 16.7235 13.2819C16.7235 13.1352 16.7083 12.9888 16.6782 12.8469C16.6336 12.6356 16.7686 12.4282 16.9797 12.3835C17.1911 12.3388 17.3985 12.4738 17.4432 12.685C17.4569 12.7501 17.4684 12.8157 17.4777 12.8818L17.4898 12.9812L17.4964 13.07L17.5277 13.0476C17.8238 12.8186 18.0201 12.4779 18.066 12.0999L18.0739 12.0121L18.0763 11.9291C18.0763 11.6756 18.0085 11.427 17.8802 11.2105C17.7702 11.0247 17.8316 10.7849 18.0174 10.6749C18.1603 10.5903 18.3352 10.6071 18.4584 10.7039L18.4937 10.7353L18.5156 10.76L18.5625 10.7011C18.7884 10.4009 18.9279 10.0458 18.9669 9.66828L18.9756 9.55437L18.9782 9.44893C18.9782 8.94539 18.7987 8.46824 18.4816 8.09554L18.4115 8.0173L18.3428 7.94761L18.3253 8.01547L18.3093 8.0697L18.273 8.17691C18.216 8.332 18.0686 8.43303 17.9061 8.43303C17.8603 8.43303 17.8148 8.42499 17.7712 8.40898C17.5686 8.3345 17.4647 8.10984 17.5391 7.9072C17.5964 7.75148 17.6254 7.58762 17.6254 7.41974C17.6254 6.64086 16.9914 6.00694 16.2126 6.00694C15.982 6.00694 15.7572 6.06337 15.5565 6.16883L15.472 6.217L15.4308 6.24361L15.5138 6.32271L15.5544 6.36473L15.594 6.40787L15.6699 6.49745C15.8051 6.6658 15.7782 6.91188 15.6099 7.04707C15.4415 7.18225 15.1955 7.15535 15.0603 6.98701C14.7901 6.65051 14.3888 6.45789 13.9579 6.45789C13.4919 6.45789 13.0662 6.68071 12.7973 7.06501L12.7708 7.10521L12.7706 7.87101C12.7705 8.02909 12.676 8.1674 12.5283 8.22977L12.4824 8.24615L12.4336 8.25763L12.3795 8.26175C12.2055 8.26162 12.0555 8.14726 12.0043 7.97344L11.9928 7.9246L11.9887 7.8706L11.9892 6.99801L11.9521 6.95525C11.2533 6.17855 10.2534 5.7528 9.20919 5.78346L9.08852 5.78902L8.96754 5.79868C8.06414 5.88608 7.23735 6.32566 6.63841 7.03771C6.04138 7.74753 5.73908 8.64379 5.78675 9.56217C5.90603 11.8603 7.60032 14.1042 9.94997 16.0345L10.247 16.2741C10.7476 16.6707 11.2749 17.0533 11.8207 17.4194L11.988 17.53L11.9887 8.77255C11.9887 8.58749 12.1173 8.43246 12.29 8.39194L12.334 8.38424L12.3796 8.38161C12.5536 8.38161 12.7036 8.49594 12.755 8.66973L12.7665 8.71857L12.7706 8.77255V12.38C12.7706 12.9102 13.2022 13.3419 13.7324 13.3419C13.9483 13.3419 14.1234 13.5169 14.1234 13.7328C14.1234 13.9487 13.9483 14.1238 13.7324 14.1238C13.443 14.1238 13.1643 14.0524 12.9159 13.9199L12.8242 13.8674L12.7704 13.8324L12.7706 17.7235C12.7706 17.9311 12.6762 18.1246 12.5181 18.252L12.4688 18.2882L12.4159 18.3201C12.3163 18.3742 12.2055 18.402 12.0933 18.402C11.9628 18.402 11.8346 18.3644 11.7241 18.2925C10.4299 17.4511 9.0787 16.3918 7.89832 15.1647C6.07539 13.2696 5.09917 11.399 5.00595 9.60268C4.94798 8.48592 5.31539 7.39598 6.04006 6.5344C6.7707 5.66574 7.784 5.12764 8.89228 5.02039C10.1437 4.89946 11.3692 5.32096 12.2725 6.16673ZM14.7047 8.50843C14.9206 8.50843 15.0957 8.68346 15.0957 8.89937C15.0957 9.4075 15.4921 9.8251 15.9918 9.85902L16.0575 9.86124C16.2734 9.86124 16.4485 10.0363 16.4485 10.2522C16.4485 10.4681 16.2734 10.6431 16.0575 10.6431C15.8521 10.6431 15.6515 10.6072 15.4629 10.5384L15.3684 10.5008L15.3491 10.5683C15.323 10.6729 15.315 10.7812 15.3255 10.8895L15.3369 10.9707L15.3552 11.0514C15.4119 11.2598 15.289 11.4746 15.0805 11.5313C15.0468 11.5404 15.0123 11.545 14.9779 11.545C14.8028 11.545 14.6474 11.4279 14.6008 11.2567C14.5008 10.8894 14.523 10.5078 14.6595 10.1619L14.6996 10.0685L14.7236 10.02L14.6862 9.97505C14.4893 9.72469 14.3638 9.42499 14.3259 9.10526L14.3166 8.99798L14.3138 8.89937C14.3138 8.68346 14.4888 8.50843 14.7047 8.50843Z" />
</svg>
