<svg width="24" height="24" viewBox="0 0 24 24" fill="none" xmlns="http://www.w3.org/2000/svg">
<path d="M12.8987 4.00016C13.5247 4.00883 14.0659 4.32922 14.3426 4.84551C15.3757 4.89653 16.0114 5.56247 16.0114 6.60921C16.0114 6.68744 16.0068 6.76585 15.9977 6.84362C16.6906 7.28637 16.9886 7.87892 16.9886 8.79709C16.9886 9.71551 16.6906 10.308 15.9977 10.7506C16.0068 10.8283 16.0114 10.9068 16.0114 10.985C16.0114 12.0317 15.3757 12.6977 14.3426 12.7487C14.0657 13.2651 13.5246 13.5853 12.8987 13.5941L12.8746 13.5942C12.5208 13.5942 12.2299 13.4842 12.0097 13.267C11.9857 13.2433 11.9628 13.2185 11.9408 13.1925C11.9188 13.2185 11.8959 13.2433 11.8719 13.267C11.6516 13.4842 11.3607 13.5942 11.0069 13.5942L10.9828 13.5941C10.3569 13.5854 9.81567 13.265 9.53899 12.7487C8.50588 12.6977 7.8702 12.0317 7.8702 10.985C7.8702 10.9068 7.87475 10.8284 7.88382 10.7506C7.19099 10.3078 6.89297 9.7153 6.89297 8.79713C6.89297 7.87871 7.19095 7.28619 7.88382 6.84362C7.87478 6.76589 7.8702 6.68744 7.8702 6.60921C7.8702 5.56247 8.50588 4.89653 9.53896 4.84551C9.81582 4.32915 10.357 4.00887 10.9828 4.00016C11.3473 3.99528 11.6466 4.10513 11.8719 4.32728C11.8959 4.35091 11.9188 4.37576 11.9408 4.40175C11.9628 4.37576 11.9857 4.35091 12.0097 4.32728C12.2349 4.10513 12.5337 3.99535 12.8987 4.00016ZM10.9929 4.71715C10.6886 4.72138 10.4215 4.84859 10.2532 5.06005C10.5859 5.33093 10.7486 5.7825 10.6312 6.22386C10.5885 6.38437 10.4435 6.49035 10.285 6.49035C10.2544 6.49035 10.2235 6.48645 10.1926 6.47824C10.0012 6.42732 9.88738 6.23095 9.93826 6.0396L9.94774 5.99359C9.97483 5.80963 9.87369 5.62974 9.7042 5.55845C9.69384 5.55906 9.68341 5.55942 9.67294 5.55942H9.66864C8.9511 5.55942 8.5873 5.91261 8.5873 6.60921C8.5873 6.69174 8.59515 6.77453 8.61071 6.85527C8.65141 7.06752 8.5536 7.28182 8.36734 7.38888C7.80831 7.71062 7.61011 8.0792 7.61011 8.79713C7.61011 9.51498 7.80831 9.88352 8.36755 10.2055C8.5536 10.3124 8.65144 10.5268 8.61075 10.7387C8.59519 10.8196 8.5873 10.9024 8.5873 10.985C8.5873 11.6347 8.90381 11.9857 9.52859 12.03C9.6411 11.8238 9.80807 11.6518 10.0163 11.5314C10.3149 11.3587 10.6627 11.3129 10.9956 11.4023C11.1869 11.4537 11.3003 11.6503 11.2489 11.8416C11.1976 12.0328 11.0008 12.1463 10.8097 12.0949C10.6621 12.0552 10.5078 12.0756 10.3752 12.1522C10.2809 12.2067 10.2056 12.285 10.1553 12.3791C10.3031 12.6821 10.6202 12.8719 10.9928 12.8771C11.1605 12.8795 11.2837 12.8399 11.3684 12.7564C11.5083 12.6185 11.5823 12.3358 11.5823 11.9391V5.65515C11.5823 5.25839 11.5083 4.97576 11.3685 4.83783C11.2837 4.7543 11.1608 4.71475 10.9929 4.71715ZM12.8888 4.71719C12.7208 4.71475 12.5979 4.75433 12.5132 4.83787C12.3733 4.9758 12.2993 5.25843 12.2993 5.65515V11.9391C12.2993 12.3358 12.3733 12.6185 12.5131 12.7564C12.5979 12.8399 12.7208 12.8799 12.8887 12.8771C13.193 12.8728 13.4601 12.7456 13.6284 12.5342C13.2957 12.2633 13.133 11.8118 13.2504 11.3704C13.3013 11.179 13.4977 11.0651 13.689 11.116C13.8804 11.1669 13.9942 11.3633 13.9434 11.5546C13.8904 11.7538 13.9938 11.9585 14.1773 12.0357C14.1882 12.0351 14.1991 12.0348 14.2102 12.0348C14.9305 12.0348 15.2943 11.6816 15.2943 10.985C15.2943 10.9025 15.2864 10.8197 15.2709 10.7389C15.2302 10.5267 15.328 10.3124 15.5143 10.2053C16.0733 9.88359 16.2715 9.51502 16.2715 8.79709C16.2715 8.07923 16.0733 7.7107 15.5141 7.38873C15.328 7.28178 15.2302 7.06745 15.2709 6.85552C15.2864 6.7746 15.2943 6.69181 15.2943 6.60921C15.2943 5.95951 14.9778 5.60854 14.353 5.56422C14.2405 5.77042 14.0736 5.94237 13.8653 6.0628C13.6665 6.17778 13.4458 6.23655 13.2222 6.23655C13.11 6.23655 12.9972 6.22178 12.886 6.19191C12.6947 6.14057 12.5813 5.94388 12.6327 5.75267C12.6841 5.56143 12.8808 5.44802 13.072 5.4994C13.2196 5.53906 13.3739 5.51869 13.5064 5.44207C13.6007 5.38754 13.676 5.30924 13.7263 5.21519C13.5785 4.91212 13.2615 4.72235 12.8888 4.71719ZM9.90713 8.06331C10.1052 8.06331 10.2657 8.22383 10.2657 8.42185C10.2657 8.61987 10.1052 8.78038 9.90717 8.78038C9.70535 8.78038 9.62292 8.9338 9.60249 8.9808C9.58237 9.02698 9.52734 9.1889 9.66211 9.33353C9.67004 9.34203 9.67825 9.35056 9.68664 9.35891C9.82675 9.49881 9.82693 9.72584 9.68703 9.86595C9.61701 9.93608 9.52515 9.97118 9.4333 9.97118C9.34165 9.97118 9.24998 9.93626 9.17999 9.86638C9.16554 9.85197 9.15142 9.83734 9.13761 9.82253C8.85025 9.51419 8.77643 9.08212 8.9449 8.6948C9.11431 8.30529 9.48302 8.06331 9.90713 8.06331ZM13.9745 8.06335C14.3986 8.06335 14.7673 8.30532 14.9367 8.69484C15.1052 9.08216 15.0314 9.51423 14.7441 9.82246C14.7302 9.8373 14.7161 9.85197 14.7017 9.86638C14.6317 9.93622 14.54 9.97118 14.4484 9.97118C14.3565 9.97118 14.2647 9.93612 14.1946 9.86595C14.0547 9.72584 14.0549 9.49881 14.195 9.35891C14.2034 9.35056 14.2116 9.34206 14.2196 9.33346C14.3543 9.18893 14.2993 9.02702 14.2792 8.98084C14.2587 8.93384 14.1763 8.78042 13.9745 8.78042C13.7765 8.78042 13.616 8.6199 13.616 8.42188C13.616 8.22387 13.7765 8.06335 13.9745 8.06335Z" fill="#08B89D"/>
<path d="M5.68278 8.87328C5.93512 8.68742 6.28686 8.85095 6.31831 9.15175L6.32058 9.19564V11.8004C6.32058 12.2235 6.54288 12.6132 6.90205 12.8294L6.97098 12.8678L9.27405 14.056C10.1739 14.5203 10.7509 15.4322 10.7896 16.4385L10.7916 16.5466V17.6575C10.7916 17.8786 10.6124 18.0579 10.3913 18.0579C10.186 18.0579 10.0167 17.9033 9.99362 17.7042L9.99092 17.6575V16.5466C9.99092 15.8287 9.60679 15.1684 8.98884 14.8123L8.90692 14.7676L6.60386 13.5794C5.96585 13.2503 5.55514 12.6061 5.52202 11.8937L5.51985 11.8004L5.51978 9.98756L5.2895 10.1575C5.00411 10.3677 4.82729 10.6922 4.80348 11.0431L4.80073 11.1245V11.9968C4.80073 12.755 5.10789 13.4792 5.64917 14.0057L5.73211 14.0832L7.88356 16.0127C8.36339 16.443 8.64896 17.0469 8.67921 17.6876L8.68188 17.801V18.7825C8.68188 19.0036 8.50264 19.1829 8.28152 19.1829C8.0762 19.1829 7.90698 19.0283 7.88385 18.8292L7.88116 18.7825V17.801C7.88116 17.3764 7.71259 16.9704 7.41473 16.6712L7.34894 16.6088L5.19749 14.6793C4.46716 14.0243 4.03685 13.1012 4.00226 12.1245L4 11.9968V11.1245C4 10.5218 4.2714 9.95313 4.7355 9.57413L4.81462 9.51275L5.68278 8.87328Z" fill="#08B89D"/>
<path d="M18.3172 8.87328C18.0649 8.68742 17.7131 8.85095 17.6817 9.15175L17.6794 9.19564V11.8004C17.6794 12.2235 17.4571 12.6132 17.0979 12.8294L17.029 12.8678L14.726 14.056C13.8261 14.5203 13.2491 15.4322 13.2104 16.4385L13.2084 16.5466V17.6575C13.2084 17.8786 13.3876 18.0579 13.6087 18.0579C13.814 18.0579 13.9833 17.9033 14.0064 17.7042L14.0091 17.6575V16.5466C14.0091 15.8287 14.3932 15.1684 15.0112 14.8123L15.0931 14.7676L17.3961 13.5794C18.0341 13.2503 18.4449 12.6061 18.478 11.8937L18.4801 11.8004L18.4802 9.98756L18.7105 10.1575C18.9959 10.3677 19.1727 10.6922 19.1965 11.0431L19.1993 11.1245V11.9968C19.1993 12.755 18.8921 13.4792 18.3508 14.0057L18.2679 14.0832L16.1164 16.0127C15.6366 16.443 15.351 17.0469 15.3208 17.6876L15.3181 17.801V18.7825C15.3181 19.0036 15.4974 19.1829 15.7185 19.1829C15.9238 19.1829 16.093 19.0283 16.1161 18.8292L16.1188 18.7825V17.801C16.1188 17.3764 16.2874 16.9704 16.5853 16.6712L16.6511 16.6088L18.8025 14.6793C19.5328 14.0243 19.9631 13.1012 19.9977 12.1245L20 11.9968V11.1245C20 10.5218 19.7286 9.95313 19.2645 9.57413L19.1854 9.51275L18.3172 8.87328Z" fill="#08B89D"/>
</svg>
