<svg width="24" height="24" viewBox="0 0 24 24" fill="none" xmlns="http://www.w3.org/2000/svg">
<path d="M12.0825 4C13.974 4 15.753 4.73687 17.0905 6.07439C18.3485 7.33239 19.0761 8.98192 19.1573 10.7512L19.1631 10.9174L19.1649 11.0825V17.7918C19.1649 18.4089 18.6989 18.923 18.0918 18.9923L18.0238 18.9981L17.9567 19H6.2082C5.59112 19 5.07698 18.534 5.00774 17.9269L5.00189 17.8589L5 17.7918V12.0903C5 11.9001 5.15416 11.746 5.34433 11.746C5.49961 11.746 5.63307 11.8494 5.67601 12.0021L5.68542 12.0449L5.68867 12.0903V17.7918C5.68867 18.0454 5.87231 18.2594 6.11174 18.3029L6.16034 18.3093L6.2082 18.3113L8.21055 18.3111L8.21069 17.6478C8.21069 17.3889 8.3683 17.1616 8.60288 17.0642L8.6543 17.0453L8.669 17.041L9.00826 15.289L8.9676 15.2596C7.7228 14.3305 6.95993 12.9021 6.87889 11.3568L6.8734 11.216L6.8717 11.0825C6.8717 8.20914 9.20914 5.8717 12.0825 5.8717C14.9558 5.8717 17.2932 8.20914 17.2932 11.0825C17.2932 12.6831 16.5604 14.1867 15.3074 15.175L15.1987 15.2585L15.1563 15.289L15.4956 17.0406L15.508 17.0439C15.7129 17.1072 15.8733 17.2719 15.9313 17.4822L15.9437 17.5357L15.9516 17.5908L15.9542 17.6478L15.954 18.3111L17.9567 18.3113C18.1934 18.3113 18.3956 18.1514 18.4569 17.9354L18.4678 17.8883L18.4742 17.8397L18.4763 17.7918V11.0825C18.4763 7.55701 15.6079 4.68867 12.0825 4.68867C8.55701 4.68867 5.68867 7.55701 5.68867 11.0825C5.68867 11.2727 5.53451 11.4268 5.34433 11.4268C5.15416 11.4268 5 11.2727 5 11.0825C5 9.19088 5.73686 7.41188 7.07439 6.07438C8.41194 4.73687 10.1909 4 12.0825 4ZM14.6718 16.4083H9.49275L9.37539 17.0153L13.3414 17.0155C13.518 17.0155 13.6635 17.1485 13.6834 17.3197L13.6857 17.3599C13.6857 17.5152 13.5823 17.6486 13.4296 17.6916L13.3867 17.701L13.3414 17.7042L8.89933 17.7041V18.3111H15.2652V17.7041L14.3492 17.7042C14.1726 17.7042 14.0271 17.5713 14.0072 17.4L14.0049 17.3599C14.0049 17.2046 14.1082 17.0711 14.261 17.0282L14.3038 17.0188L14.3492 17.0155L14.7892 17.0153L14.6718 16.4083ZM7.28803 15.0718C7.83525 15.0718 8.28026 15.5168 8.28026 16.0641C8.28026 16.6113 7.83525 17.0563 7.28803 17.0563C6.7408 17.0563 6.29579 16.6113 6.29579 16.0641C6.29579 15.5168 6.7408 15.0718 7.28803 15.0718ZM16.8769 15.0718C17.4241 15.0718 17.8691 15.5168 17.8691 16.0641C17.8691 16.6113 17.4241 17.0563 16.8769 17.0563C16.3297 17.0563 15.8847 16.6113 15.8847 16.0641C15.8847 15.5168 16.3297 15.0718 16.8769 15.0718ZM7.28803 15.7605C7.12075 15.7605 6.98446 15.8968 6.98446 16.0641C6.98446 16.2313 7.12075 16.3676 7.28803 16.3676C7.4553 16.3676 7.59159 16.2313 7.59159 16.0641C7.59159 15.8968 7.4553 15.7605 7.28803 15.7605ZM16.8769 15.7605C16.7096 15.7605 16.5733 15.8968 16.5733 16.0641C16.5733 16.2313 16.7096 16.3676 16.8769 16.3676C17.0442 16.3676 17.1805 16.2313 17.1805 16.0641C17.1805 15.8968 17.0442 15.7605 16.8769 15.7605ZM14.0586 13.2406H10.106L9.62625 15.7195H14.5383L14.0586 13.2406ZM12.0825 6.56037C9.58909 6.56037 7.56037 8.58908 7.56037 11.0825C7.56037 12.3986 8.13107 13.6415 9.11828 14.4978L9.15496 14.5287L9.19384 14.3299L9.15187 14.2927C8.28063 13.4978 7.77269 12.3928 7.73752 11.2138L7.73557 11.0825C7.73557 8.68548 9.68548 6.73557 12.0825 6.73557C14.4795 6.73557 16.4294 8.68547 16.4294 11.0824C16.4294 12.2663 15.9538 13.3849 15.1072 14.2045L15.0116 14.2943L14.9711 14.3299L15.0096 14.5287L15.0484 14.4962C16.001 13.6685 16.5661 12.4808 16.6027 11.2138L16.6046 11.0825C16.6046 8.58908 14.5758 6.56037 12.0825 6.56037ZM12.0825 7.29587C9.99454 7.29587 8.29587 8.99451 8.29587 11.0825C8.29587 12.0662 8.67347 12.9971 9.34472 13.6984L9.43015 13.7849L9.57044 13.0599C9.41929 12.985 9.31062 12.8368 9.29211 12.6619L9.28931 12.6086V12.3207C9.28931 12.0592 9.48957 11.8435 9.74477 11.8191L9.79323 11.8167H10.3775C10.3535 11.7492 10.3403 11.6765 10.3403 11.6008C10.3403 11.2614 10.6026 10.9821 10.9352 10.955L10.9882 10.9529H13.1767C13.534 10.9529 13.8246 11.2435 13.8246 11.6008C13.8246 11.6576 13.8172 11.7126 13.8034 11.7651L13.7874 11.8167H14.3717C14.6332 11.8167 14.8488 12.017 14.8733 12.2722L14.8756 12.3207V12.6086C14.8756 12.7885 14.7807 12.9462 14.6385 13.0353L14.5945 13.0599L14.7348 13.7848C15.4595 13.0746 15.8691 12.108 15.8691 11.0825C15.8691 8.99451 14.1704 7.29587 12.0825 7.29587ZM14.3153 12.3769H9.84925V12.5522H14.3153V12.3769ZM13.1767 11.5132H10.9882C10.94 11.5132 10.9006 11.5526 10.9006 11.6008C10.9006 11.6351 10.9208 11.6655 10.945 11.6791L10.9636 11.686L10.9882 11.6884H13.1767C13.2249 11.6884 13.2643 11.649 13.2643 11.6008C13.2643 11.5526 13.2249 11.5132 13.1767 11.5132Z" fill="#08B89D"/>
</svg>
