<svg width="24" height="24" viewBox="0 0 24 24" fill="none" xmlns="http://www.w3.org/2000/svg">
<path d="M18.6568 6.33922C19.5032 7.42643 19.9497 8.71826 19.9954 10.2025C20.0336 11.4394 19.8317 12.5726 19.419 13.5191C19.3336 13.7151 19.1054 13.8047 18.9094 13.7192C18.7134 13.6338 18.6238 13.4056 18.7092 13.2096C19.0746 12.3717 19.2562 11.3522 19.2215 10.2264C19.1825 8.96027 18.8224 7.8685 18.1404 6.94002L18.0323 6.79771C17.1076 5.6296 15.4111 5.43227 14.243 6.35696C14.1988 6.39196 14.1568 6.42971 14.1173 6.46998C13.615 6.98216 13.6048 7.79344 14.081 8.31776L14.1359 8.37481C14.6651 8.89375 14.8559 9.44971 14.6363 9.99638C14.5365 10.2447 14.4244 10.4442 14.3022 10.5964L14.2738 10.576C14.6856 10.8476 14.8616 11.3634 14.7017 11.8301C14.1302 13.4976 14.2589 14.5092 14.9971 14.9685C15.1786 15.0814 15.2342 15.3202 15.1212 15.5017C15.0083 15.6833 14.7695 15.7389 14.588 15.6259C13.4706 14.9307 13.2946 13.5473 13.9692 11.5791C14.0146 11.4464 13.9646 11.2997 13.8475 11.2225C13.73 11.145 13.5799 11.1435 13.4621 11.2146L13.4195 11.2447L13.3443 11.3064C13.1354 11.4776 13.007 11.7264 12.9871 11.9936L12.9844 12.0668V18.7557C12.9844 18.9696 12.811 19.1429 12.5972 19.1429C12.3987 19.1429 12.235 18.9934 12.2126 18.8009L12.21 18.7557V12.0668C12.21 11.5713 12.4192 11.1002 12.7832 10.7682L12.8533 10.7076L12.9023 10.6674C12.6711 10.481 12.434 10.2106 12.1971 9.86055C12.0772 9.68347 12.1236 9.44276 12.3007 9.32291C12.4778 9.20307 12.7185 9.24947 12.8383 9.42655L12.9356 9.56833L13.0254 9.69496L13.1083 9.80661C13.1215 9.82398 13.1345 9.84074 13.1473 9.85688L13.2208 9.94642C13.515 10.2892 13.663 10.2541 13.8335 9.90119L13.8749 9.81042L13.9178 9.70764C13.9989 9.50589 13.9301 9.27835 13.6522 8.98684L13.5938 8.92767C12.7573 8.10738 12.7441 6.76431 13.5644 5.92783C13.6266 5.86441 13.6927 5.80496 13.7624 5.74983C15.2374 4.58216 17.3672 4.80462 18.571 6.23334L18.6568 6.33922Z" fill="#08B89D"/>
<path d="M10.2375 5.74983C8.76243 4.58216 6.63268 4.80462 5.42882 6.23334L5.34306 6.33922C4.49664 7.42643 4.05015 8.71826 4.0044 10.2025C3.88644 14.0296 6.15472 16.7197 8.78533 15.9065C10.4285 15.3985 10.8209 13.8848 10.0307 11.5791C9.9852 11.4464 10.0352 11.2997 10.1524 11.2225C10.2698 11.145 10.4199 11.1435 10.5378 11.2146L10.5803 11.2447L10.6556 11.3064C10.8644 11.4776 10.9928 11.7264 11.0127 11.9936L11.0155 12.0668V18.7557C11.0155 18.9696 11.1888 19.1429 11.4026 19.1429C11.6012 19.1429 11.7648 18.9934 11.7872 18.8009L11.7898 18.7557V12.0668C11.7898 11.5713 11.5807 11.1002 11.2166 10.7682L11.1465 10.7076L11.0979 10.667L11.1169 10.6516C11.3246 10.4802 11.537 10.2412 11.7496 9.93774L11.8028 9.86055C11.9226 9.68347 11.8762 9.44276 11.6991 9.32291C11.5221 9.20307 11.2814 9.24947 11.1615 9.42655L11.0643 9.56833L10.9745 9.69496L10.8916 9.80661C10.8783 9.82398 10.8653 9.84074 10.8526 9.85688L10.7791 9.94642C10.4849 10.2892 10.3369 10.2541 10.1663 9.90119L10.1249 9.81042L10.0821 9.70764C10.001 9.50589 10.0697 9.27835 10.3477 8.98684L10.4061 8.92767C11.2426 8.10738 11.2557 6.76431 10.4354 5.92783C10.3732 5.86441 10.3071 5.80496 10.2375 5.74983ZM9.75687 6.35696C9.80109 6.39196 9.84307 6.42971 9.88256 6.46998C10.3848 6.98216 10.395 7.79344 9.91884 8.31776L9.86394 8.37481C9.33475 8.89375 9.1439 9.44971 9.36359 9.99638C9.45827 10.232 9.56406 10.4237 9.67905 10.5728L9.69794 10.5958L9.66609 10.6186C9.31687 10.8843 9.16275 11.336 9.27669 11.7598L9.29818 11.8301C9.96439 13.774 9.69452 14.8149 8.55664 15.1667C6.53197 15.7925 4.67469 13.5899 4.77836 10.2264C4.81739 8.96027 5.1774 7.8685 5.85943 6.94002L5.96753 6.79771C6.89222 5.6296 8.58876 5.43227 9.75687 6.35696Z" fill="#08B89D"/>
<path d="M17.9401 12.7037H16.0043C15.7905 12.7037 15.6171 12.8771 15.6171 13.0909V17.9305C15.6171 18.6789 16.2238 19.2856 16.9722 19.2856C17.7206 19.2856 18.3273 18.6789 18.3273 17.9305V13.0909C18.3273 12.8771 18.154 12.7037 17.9401 12.7037ZM16.3915 13.4781H17.553V17.9305C17.553 18.2512 17.2929 18.5112 16.9722 18.5112L16.9163 18.5086C16.6218 18.4804 16.3915 18.2323 16.3915 17.9305V13.4781Z" fill="#08B89D"/>
<path d="M17.9401 13.4784H16.0043C15.728 13.4784 15.5406 13.1973 15.6469 12.9423L17.5827 8.29632C17.7455 7.90568 18.3273 8.02203 18.3273 8.44523V13.0912C18.3273 13.3051 18.1539 13.4784 17.9401 13.4784ZM17.5529 12.7041V10.3811L16.585 12.7041H17.5529Z" fill="#08B89D"/>
</svg>
